<svg xmlns="http://www.w3.org/2000/svg" xmlns:xlink="http://www.w3.org/1999/xlink" width="168" height="48" fill="none" xmlns:v="https://vecta.io/nano"><style><![CDATA[.B{fill-rule:evenodd}.C{stroke-linejoin:round}.D{stroke-width:6}.E{fill:#ffc20b}.F{stroke-miterlimit:1.5}.G{stroke-linecap:square}]]></style><path d="M46.654 31.489c0 3.014-.788 5.153-2.017 6.712-1.241 1.574-3.025 2.676-5.214 3.436-4.442 1.542-10.158 1.557-15.274 1.557s-10.909-.014-15.43-1.559c-2.23-.762-4.052-1.867-5.319-3.444-1.253-1.559-2.056-3.695-2.056-6.702 0-5.622 1.211-12.465 4.663-17.856 3.4-5.311 9.019-9.299 18.142-9.299 8.647 0 14.204 3.995 17.657 9.347 3.497 5.42 4.848 12.27 4.848 17.808z" fill="#fbc546" stroke="#000" stroke-width="2.69"/><g class="B"><path d="M16.273 33.318c-2.399-1.845-4.126-4.52-4.75-7.593h25.08c-.624 3.073-2.351 5.747-4.75 7.593-1.423-1.542-14.156-1.542-15.579 0z" fill="#722245"/><path d="M16.274 33.318a7.68 7.68 0 0 1 5.646-2.474h4.287a7.68 7.68 0 0 1 5.646 2.474 12.74 12.74 0 0 1-7.79 2.645 12.74 12.74 0 0 1-7.79-2.645z" fill="#ca3b8f"/><path d="M15.747 24.446c1.188 0 2.325-.472 3.165-1.312s1.312-1.977 1.312-3.165v-2.562a4.48 4.48 0 0 0-4.479-4.479h-.003c-1.188 0-2.325.472-3.165 1.312s-1.312 1.977-1.312 3.165v2.562a4.48 4.48 0 0 0 4.479 4.479h.003 0z" fill="#fff"/><path d="M13.825 16.768a2.56 2.56 0 0 1 2.559-2.559 2.56 2.56 0 0 1 2.559 2.559v3.817c0 .68-.27 1.33-.75 1.811a2.56 2.56 0 0 1-3.619 0c-.48-.481-.75-1.131-.75-1.811v-3.817z" fill="#000"/><path d="M32.379 24.446c-1.188 0-2.325-.472-3.165-1.312s-1.312-1.977-1.312-3.165v-2.562a4.48 4.48 0 0 1 4.479-4.479h.003c1.188 0 2.325.472 3.165 1.312s1.312 1.977 1.312 3.165v2.562a4.48 4.48 0 0 1-4.479 4.479h-.002z" fill="#fff"/><path d="M34.301 16.768a2.56 2.56 0 0 0-2.56-2.559 2.56 2.56 0 0 0-2.559 2.559v3.817c0 .68.27 1.33.75 1.811a2.56 2.56 0 0 0 3.619 0c.48-.481.75-1.131.75-1.811v-3.817z" fill="#000"/></g><g clip-path="url(#A)"><g stroke="#000" class="C F"><path d="M123 45l6.02-24.078c.649-2.599 2.984-4.422 5.663-4.422h.002A16.82 16.82 0 0 1 151.5 33.315v.002c0 2.679-1.822 5.015-4.422 5.664L123 45z" class="D"/><g stroke-width="9" class="G"><use xlink:href="#B"/><use xlink:href="#C"/><path d="M150.75 30.75h1.667c1.863 0 3.7.433 5.366 1.267l3.467 1.733"/></g><g class="D"><path d="M142.5 13.5l3-3 3 3-3 3-3-3zm6-6L150 3l4.5 1.5L153 9l-4.5-1.5zM150 27l1.5-4.5L156 24l-1.5 4.5L150 27zM127.5 9l3-3 3 3-3 3-3-3zM159 19.5l3-3 3 3-3 3-3-3z"/></g></g><g class="B"><path d="M142.5 10.5l7.5-3h9V21h-24V9l7.5 1.5z" fill="#000"/><path d="M130.5 18.27l19.234 19.234a5.81 5.81 0 0 1-2.656 1.48L123 45.004l6.02-24.078a5.81 5.81 0 0 1 1.48-2.656z" fill="#e4ab1b"/><path d="M130.5 18.266c1.071-1.099 2.565-1.765 4.183-1.765h.002A16.82 16.82 0 0 1 151.5 33.315v.002c0 1.619-.666 3.113-1.766 4.184H148.5a17.99 17.99 0 0 1-18-18v-1.235h0z" fill="#5e3d05"/></g><g stroke-width="3" class="C F G"><use xlink:href="#B" stroke="#37cbe8"/><use xlink:href="#C" stroke="#f2c618"/><path d="M150.75 30.75h1.667c1.863 0 3.7.433 5.366 1.267l3.467 1.733" stroke="#ff4586"/></g><g class="B"><g fill="#9146dc"><path d="M142.5 13.5l3-3 3 3-3 3-3-3zm-15-4.5l3-3 3 3-3 3-3-3zM159 19.5l3-3 3 3-3 3-3-3z"/></g><path d="M148.5 7.5L150 3l4.5 1.5L153 9l-4.5-1.5z" fill="#f2298a"/><path d="M150 27l1.5-4.5L156 24l-1.5 4.5L150 27z" fill="#f2c618"/></g></g><path d="M96 34.5l9 9V45H93l-7.061-7.06a1.5 1.5 0 0 1-.439-1.061V6a3 3 0 0 1 3-3l7.025 14.051A4.48 4.48 0 0 1 96 19.062V34.5zm-24 0l-9 9V45h12l7.061-7.06a1.5 1.5 0 0 0 .439-1.061V6a3 3 0 0 0-3-3l-7.025 14.051A4.48 4.48 0 0 0 72 19.062V34.5z" stroke="#000" stroke-miterlimit="2" class="C D"/><g class="B"><path d="M72 34.5h3l3.75 3.75v3L75 45H63v-1.5l9-9zm24 0h-3l-3.75 3.75v3L93 45h12v-1.5l-9-9z" fill="#ce8d15"/><path d="M72 34.5l6.75 6.75 3.311-3.31a1.5 1.5 0 0 0 .439-1.061V6a3 3 0 0 0-3-3l-7.025 14.051A4.48 4.48 0 0 0 72 19.062V34.5z" class="E"/><path d="M82.5 36h-3a3 3 0 0 1-3-3V16.5c0-1.194.474-2.338 1.319-3.181S79.806 12 81 12l.224.006a4.49 4.49 0 0 1 2.958 1.313c.844.843 1.319 1.987 1.319 3.182V33a3 3 0 0 1-3 3zm-3-3h3V16.5c0-.398-.157-.78-.439-1.06S81.398 15 81 15s-.78.158-1.061.44-.439.663-.439 1.06V33z" fill="#765018"/><g class="E"><path d="M75 36v-4.5h10.5v6h-9L75 36z"/><path d="M96 34.5l-6.75 6.75-3.311-3.31a1.5 1.5 0 0 1-.439-1.061V6a3 3 0 0 1 3-3l7.025 14.051A4.48 4.48 0 0 1 96 19.062V34.5z"/></g><path d="M88.5 36a3 3 0 0 0 3-3V16.5c0-1.194-.474-2.338-1.319-3.181S88.194 12 87 12s-2.338.474-3.181 1.319S82.5 15.306 82.5 16.5V33a3 3 0 0 0 3 3h3zm0-3V16.5c0-.398-.157-.78-.439-1.06S87.398 15 87 15s-.78.158-1.061.44-.439.663-.439 1.06V33h3z" fill="#765018"/><path d="M91.5 37.5L93 36v-4.5H82.5v6h9z" class="E"/></g><defs><clipPath id="A"><path fill="#fff" transform="translate(120)" d="M0 0h48v48H0z"/></clipPath><path id="B" d="M142.5 25.5l5.068-2.533c2.538-1.27 4.545-3.398 5.663-6.007l.405-.944A9.1 9.1 0 0 1 162 10.5"/><path id="C" d="M136.5 19.5v-2.01a4.03 4.03 0 0 1 2.227-3.603c1.003-.503 1.763-1.379 2.117-2.439s.272-2.219-.229-3.218L139.5 6"/></defs></svg>