<svg xmlns="http://www.w3.org/2000/svg" width="168" height="48" fill="none" xmlns:v="https://vecta.io/nano"><g clip-path="url(#A)"><path d="M100 29.333c-3.999 0-8.917 9.459-9.333 13.333-.561 5.22 2.667 5.333 2.667 5.333H108V34.667s-4.584-5.333-8-5.333z" fill="#50a5e6"/><path d="M98.655 39.078c2.153-3.729 3.052-7.242 2.007-7.845s-3.637 1.931-5.79 5.661-3.052 7.242-2.007 7.845 3.637-1.931 5.79-5.661z" fill="#1c6399"/><path d="M86.781 0a2.85 2.85 0 0 1 2.851 2.851c0 1.052.891 14.432.891 14.432L83.931 24V2.851A2.85 2.85 0 0 1 86.781 0z" fill="#f9ca55"/><path d="M85.167 5.764c0-1.465 1.136-2.652 2.537-2.652s2.537 1.188 2.537 2.652c0 0 .713 7.923 1.589 12.493 1.171 2.488 1.825 6.243 1.681 8.331.072.531 7.5 6.675 7.5 6.675-.374 2.417-3.012 8.207-6.345 10.879l-4.695-3.899c-3.847-.539-5.944-4.441-5.944-5.685 0-3.979 1.139-28.793 1.139-28.793h0z" fill="#ffdc5d"/><path d="M68 29.333c4 0 8.917 9.459 9.333 13.333.561 5.22-2.667 5.333-2.667 5.333H60V34.667s4.584-5.333 8-5.333z" fill="#50a5e6"/><path d="M75.133 44.737c1.045-.603.146-4.115-2.007-7.845s-4.745-6.264-5.79-5.661-.146 4.115 2.007 7.845 4.745 6.264 5.79 5.661z" fill="#1c6399"/><path d="M81.415.015a2.82 2.82 0 0 0-3.111 2.804c0 1.04-.245 13.759-.245 13.759L83.86 24l.083-21.02c0-1.475-1.06-2.819-2.528-2.965h0z" fill="#f9ca55"/><path d="M82.834 5.764c0-1.465-1.136-2.652-2.537-2.652S77.759 4.3 77.759 5.764c0 0-.713 7.923-1.589 12.493-1.171 2.488-1.825 6.243-1.681 8.331-.072.531-7.5 6.675-7.5 6.675.375 2.417 3.012 8.207 6.345 10.879l4.695-3.899c3.847-.539 5.944-4.441 5.944-5.685 0-3.979-1.139-28.793-1.139-28.793h0z" fill="#ffdc5d"/><path d="M83.944 34.431a1 1 0 0 1-1-1V3.723a1 1 0 1 1 2 0v29.709a1 1 0 0 1-1 .999h0z" fill="#f9ca55"/></g><g clip-path="url(#B)"><path d="M135.501 9.984c-.149.149-.263.329-.357.527l-.011-.011-14.955 33.688.015.015c-.277.537.187 1.631 1.137 2.583s2.044 1.415 2.582 1.137l.013.013 33.688-14.956-.011-.012c.196-.093.376-.207.527-.359 2.083-2.083-1.295-8.836-7.541-15.084s-13.003-9.624-15.087-7.541h0z" fill="#dd2e44"/><path d="M137.333 16l-16.779 27.341-.376.847.015.015c-.277.537.187 1.631 1.137 2.583.31.309.631.544.946.743l20.39-24.861L137.333 16z" fill="#ea596e"/><path d="M150.683 17.421c6.226 6.229 9.684 12.869 7.718 14.832s-8.604-1.491-14.834-7.717-9.684-12.872-7.72-14.836 8.605 1.492 14.836 7.721h0z" fill="#a0041e"/><path d="M144.786 18.145a1.32 1.32 0 0 1-.978.287c-1.158-.125-2.131-.528-2.812-1.164-.722-.673-1.078-1.577-.98-2.483.17-1.589 1.765-3.048 4.484-2.755 1.057.113 1.529-.227 1.545-.389s-.369-.595-1.427-.709c-1.157-.125-2.13-.528-2.813-1.164-.721-.673-1.079-1.577-.98-2.483.173-1.589 1.767-3.048 4.483-2.753.77.083 1.177-.076 1.349-.179.137-.084.192-.164.197-.211.016-.161-.366-.595-1.426-.709-.732-.08-1.263-.736-1.182-1.469a1.33 1.33 0 0 1 1.468-1.181c2.716.292 3.964 2.056 3.792 3.647s-1.766 3.048-4.485 2.756c-.771-.084-1.173.076-1.347.179-.137.083-.193.164-.198.209-.018.163.368.595 1.428.709 2.716.293 3.964 2.056 3.792 3.647s-1.766 3.048-4.483 2.753c-.771-.083-1.176.077-1.349.179-.139.085-.192.165-.198.211-.017.161.368.595 1.427.709.731.08 1.263.737 1.181 1.469-.037.365-.222.681-.488.895h0z" fill="#aa8dd8"/><path d="M160.881 30.476c2.631-.743 4.446.431 4.878 1.971s-.504 3.487-3.134 4.227c-1.026.288-1.334.779-1.293.935s.567.416 1.591.127c2.629-.74 4.444.433 4.876 1.972s-.504 3.485-3.135 4.227c-1.025.288-1.335.78-1.289.936s.564.415 1.589.127c.707-.199 1.445.213 1.644.921s-.215 1.445-.924 1.645c-2.628.74-4.444-.431-4.879-1.972s.506-3.484 3.138-4.225c1.026-.289 1.334-.779 1.289-.936s-.563-.416-1.587-.128c-2.632.741-4.445-.429-4.878-1.972s.504-3.484 3.134-4.227c1.024-.287 1.332-.78 1.29-.935s-.564-.416-1.59-.128c-.709.2-1.444-.213-1.644-.921s.215-1.443.924-1.643h0z" fill="#77b255"/><path d="M150.667 26.88c-.392 0-.778-.172-1.042-.5-.46-.576-.366-1.415.208-1.875.29-.233 7.224-5.679 17.022-4.277.73.104 1.236.779 1.132 1.508s-.773 1.24-1.509 1.131c-8.657-1.229-14.916 3.672-14.977 3.721-.248.197-.542.292-.834.292h0z" fill="#aa8dd8"/><path d="M127.672 21.334a1.37 1.37 0 0 1-.384-.056c-.706-.212-1.106-.955-.894-1.66 1.511-5.031 2.88-13.059 1.198-15.152-.188-.237-.472-.471-1.123-.421-1.251.096-1.132 2.735-1.131 2.761.056.735-.496 1.375-1.229 1.429-.745.045-1.375-.496-1.429-1.231-.138-1.839.434-5.38 3.589-5.619 1.408-.107 2.577.383 3.403 1.409 3.161 3.935-.048 15.341-.723 17.589-.173.577-.704.949-1.277.949z" fill="#77b255"/><path d="M154 14.667a2 2 0 1 0 0-4 2 2 0 1 0 0 4z" fill="#5c913b"/><path d="M122.667 26.667c1.472 0 2.666-1.194 2.666-2.667s-1.194-2.667-2.666-2.667S120 22.527 120 24s1.194 2.667 2.667 2.667z" fill="#9266cc"/><g fill="#5c913b"><path d="M163.333 28a2 2 0 1 0 0-4 2 2 0 1 0 0 4zm-12 16a2 2 0 1 0 0-4 2 2 0 1 0 0 4z"/></g><g fill="#ffcc4d"><path d="M157.334 8C158.806 8 160 6.806 160 5.333s-1.194-2.667-2.666-2.667a2.67 2.67 0 0 0-2.667 2.667A2.67 2.67 0 0 0 157.334 8zm5.999 5.333a2 2 0 1 0 0-4 2 2 0 1 0 0 4zm-4 5.334a2 2 0 0 0 0-4 2 2 0 1 0 0 4zM130 33.333a2 2 0 1 0 0-4 2 2 0 1 0 0 4z"/></g></g><path d="M48 24c0 13.255-10.745 24-24 24S0 37.255 0 24 10.747 0 24 0s24 10.747 24 24z" fill="#ffcc4d"/><path d="M15.333 24c1.841 0 3.333-3.283 3.333-7.333s-1.492-7.333-3.333-7.333S12 12.617 12 16.667 13.492 24 15.333 24zm17.333 0C34.507 24 36 20.717 36 16.667s-1.492-7.333-3.333-7.333-3.333 3.283-3.333 7.333S30.825 24 32.666 24zM24 29.333c-4.831 0-8.036-.563-12-1.333-.905-.175-2.667 0-2.667 2.667 0 5.333 6.127 12 14.667 12s14.667-6.667 14.667-12C38.666 28 36.905 27.824 36 28c-3.964.771-7.169 1.333-12 1.333z" fill="#664500"/><path d="M12 30.667S16 32 24 32s12-1.333 12-1.333S33.333 36 24 36s-12-5.333-12-5.333z" fill="#fff"/><defs><clipPath id="A"><path fill="#fff" transform="translate(60)" d="M0 0h48v48H0z"/></clipPath><clipPath id="B"><path fill="#fff" transform="translate(120)" d="M0 0h48v48H0z"/></clipPath></defs></svg>