<?xml version="1.0" encoding="UTF-8" standalone="no"?>
<svg
   width="1266.1200469886633"
   id="screenshot"
   version="1.1"
   viewBox="-0.00002945408027699159 -0.0001327683537510893 1266.1200469886633 240.00014843559939"
   height="240.00014843559939"
   style="-webkit-print-color-adjust: exact;"
   sodipodi:docname="wide.svg"
   inkscape:version="1.3.2 (091e20ef0f, 2023-11-25)"
   xmlns:inkscape="http://www.inkscape.org/namespaces/inkscape"
   xmlns:sodipodi="http://sodipodi.sourceforge.net/DTD/sodipodi-0.dtd"
   xmlns="http://www.w3.org/2000/svg"
   xmlns:svg="http://www.w3.org/2000/svg">
  <defs
     id="defs1" />
  <sodipodi:namedview
     id="namedview1"
     pagecolor="#505050"
     bordercolor="#eeeeee"
     borderopacity="1"
     inkscape:showpageshadow="0"
     inkscape:pageopacity="0"
     inkscape:pagecheckerboard="0"
     inkscape:deskcolor="#505050"
     inkscape:zoom="0.20211047"
     inkscape:cx="329.02798"
     inkscape:cy="346.34524"
     inkscape:window-width="1128"
     inkscape:window-height="709"
     inkscape:window-x="0"
     inkscape:window-y="0"
     inkscape:window-maximized="0"
     inkscape:current-layer="screenshot" />
  <path
     style="font-weight:900;font-size:221.645px;font-family:Lexend;-inkscape-font-specification:'Lexend Heavy';fill:#ffffff;stroke-width:558.474"
     d="M 156.96614,177.62764 V 22.476137 h 69.81818 q 15.95844,0 28.37056,6.870995 12.41212,6.870995 19.50476,18.839825 7.09264,11.968831 7.09264,27.483981 0,16.180085 -7.09264,28.813852 -7.09264,12.63376 -19.50476,19.94805 -12.41212,7.09264 -28.37056,7.09264 h -21.94286 v 46.10216 z m 46.98874,-86.884842 h 13.96364 q 4.21125,0 7.53593,-1.551515 3.32467,-1.77316 5.09783,-4.87619 1.99481,-3.10303 1.99481,-7.757575 0,-4.654545 -1.99481,-7.53593 -1.77316,-2.881385 -5.09783,-4.211255 -3.32468,-1.551515 -7.53593,-1.551515 h -13.96364 z m 157.36803,89.101292 q -20.61299,0 -35.4632,-7.97922 -14.85022,-7.97922 -22.82944,-21.72121 -7.97922,-13.96364 -7.97922,-31.91688 0,-13.2987 4.4329,-24.602597 4.4329,-11.303895 12.41212,-19.50476 8.20087,-8.42251 19.06147,-12.85541 11.08225,-4.654546 24.15931,-4.654546 13.07705,0 23.71601,4.654546 10.86061,4.4329 18.61818,12.85541 7.75758,8.200865 11.74719,19.50476 4.21126,11.303897 3.76797,24.602597 l -0.22165,9.30909 h -92.86926 l -5.09783,-21.05628 h 62.28224 l -4.21125,4.4329 v -3.98961 q 0,-4.21125 -2.21645,-7.314282 -1.99481,-3.324675 -5.76277,-5.097835 -3.76797,-1.77316 -8.8658,-1.77316 -6.42771,0 -10.86061,2.65974 -4.4329,2.65974 -6.87099,7.535927 -2.21645,4.87619 -2.21645,11.74719 0,7.97922 3.32467,13.96363 3.54632,5.98442 10.19567,9.30909 6.871,3.32468 16.84502,3.32468 6.64935,0 11.3039,-1.55152 4.87619,-1.77316 10.19567,-5.54112 l 20.61299,29.03549 q -8.20087,6.42771 -16.18009,9.97403 -7.75758,3.54632 -15.51515,5.09783 -7.53593,1.55152 -15.51515,1.55152 z m 72.47799,46.54545 V 59.047562 h 41.66926 l 2.4381,26.154111 -9.08745,-1.994805 q 1.55152,-7.757575 7.53593,-13.74199 5.98442,-5.984415 15.07186,-9.30909 9.30909,-3.546321 20.1697,-3.546321 14.62857,0 25.93246,7.979221 11.52554,7.757575 17.95325,21.72121 6.64935,13.741992 6.64935,31.916882 0,17.95324 -6.64935,31.91688 -6.64935,13.74199 -18.39654,21.72121 -11.52554,7.75757 -26.5974,7.75757 -9.97402,0 -18.83982,-3.54632 -8.64416,-3.54632 -14.62857,-9.75238 -5.98442,-6.4277 -7.97922,-14.62857 l 9.97402,-3.10303 v 77.7974 z m 64.27705,-83.33852 q 6.42771,0 10.86061,-2.88139 4.4329,-2.88138 6.64935,-8.42251 2.43809,-5.54112 2.43809,-13.52034 0,-7.97922 -2.43809,-13.52035 -2.21645,-5.762767 -6.64935,-8.644152 -4.4329,-2.881385 -10.86061,-2.881385 -6.4277,0 -11.08225,2.881385 -4.4329,2.881385 -6.87099,8.644152 -2.21645,5.54113 -2.21645,13.52035 0,7.97922 2.21645,13.52034 2.43809,5.54113 6.87099,8.42251 4.65455,2.88139 11.08225,2.88139 z m 164.68245,36.79307 q -18.61819,0 -34.35498,-5.98442 -15.51515,-5.98441 -27.04069,-16.62337 -11.3039,-10.86061 -17.50996,-25.71082 -6.20606,-14.85022 -6.20606,-32.581817 0,-17.7316 6.20606,-32.581815 6.42771,-14.850216 17.95325,-25.489176 11.52554,-10.860605 27.26233,-16.84502 15.95844,-5.984415 35.01992,-5.984415 10.8606,0 21.27792,2.65974 10.63896,2.438095 19.94805,7.757575 9.53073,5.097835 17.28831,13.077055 l -28.59221,33.468396 q -3.10303,-3.767965 -7.53593,-6.870995 -4.21125,-3.10303 -9.97402,-4.87619 -5.54113,-1.994805 -12.85541,-1.994805 -7.53594,0 -14.40693,2.65974 -6.64935,2.438095 -11.74719,7.314285 -4.87619,4.87619 -7.75757,11.96883 -2.88139,7.09264 -2.88139,16.40173 0,8.422512 2.88139,15.293502 2.88138,6.871 8.20086,11.74719 5.31948,4.87619 12.85541,7.53593 7.53593,2.65974 16.84503,2.65974 6.64935,0 12.63376,-1.99481 5.98442,-1.9948 10.86061,-5.09783 4.87619,-3.32468 8.42251,-7.31429 l 22.82943,35.90649 q -5.76277,6.20606 -15.2935,11.08225 -9.53074,4.87619 -21.05628,7.75758 -11.52554,2.65974 -23.27272,2.65974 z m 77.7974,-2.21645 V 13.610337 h 43.88571 v 69.374886 l -9.53074,2.65974 q 2.4381,-8.42251 8.64416,-14.850215 6.4277,-6.64935 15.2935,-10.417315 8.8658,-3.767966 18.83983,-3.767966 13.2987,0 22.60779,5.541126 9.30909,5.541125 13.96364,16.40173 4.87619,10.63896 4.87619,25.932467 v 73.14285 h -44.99394 v -69.37489 q 0,-4.87619 -1.55151,-8.20086 -1.55152,-3.324677 -4.65455,-5.097837 -3.10303,-1.77316 -7.31429,-1.77316 -3.32467,0 -6.20606,1.108225 -2.65974,0.88658 -4.65454,2.881385 -1.99481,1.994805 -3.10303,4.432897 -1.10823,2.4381 -1.10823,5.54113 v 70.48311 h -22.38614 q -8.42251,0 -14.18528,0 -5.54113,0 -8.42251,0 z m 189.7283,1.9948 q -14.85022,0 -26.37576,-7.75757 -11.52554,-7.97922 -18.17489,-21.72121 -6.64935,-13.96364 -6.64935,-31.91688 0,-18.17489 6.42771,-31.916882 6.64935,-13.963635 18.17489,-21.72121 11.74718,-7.979221 27.04069,-7.979221 7.97922,0 14.62857,2.21645 6.64935,2.216451 11.74718,6.206061 5.09784,3.98961 8.8658,9.30909 3.76797,5.097835 6.42771,11.08225 L 963.3112,85.201673 V 59.047562 h 44.1074 V 177.62764 h -45.21562 v -29.0355 l 9.97402,0.88658 q -2.21645,6.42771 -6.20606,11.96883 -3.76796,5.54113 -9.08744,9.53074 -5.31948,3.98961 -11.96883,6.4277 -6.64935,2.21645 -14.62857,2.21645 z m 12.85541,-36.57142 q 6.4277,0 10.8606,-2.88139 4.65455,-2.88138 6.871,-8.42251 2.43809,-5.54112 2.43809,-13.52034 0,-7.97922 -2.43809,-13.52035 -2.21645,-5.762767 -6.871,-8.644152 -4.4329,-2.881385 -10.8606,-2.881385 -6.42771,0 -10.86061,2.881385 -4.4329,2.881385 -6.87099,8.644152 -2.21645,5.54113 -2.21645,13.52035 0,7.97922 2.21645,13.52034 2.43809,5.54113 6.87099,8.42251 4.4329,2.88139 10.86061,2.88139 z m 101.51359,34.57662 V 29.125487 h 44.9939 V 177.62764 Z M 1026.2586,96.727213 V 59.047562 h 82.8952 v 37.679651 z"
     id="text1"
     aria-label="PepChat" />
</svg>
