<svg width="225" height="161" viewBox="0 0 225 161" fill="none" xmlns="http://www.w3.org/2000/svg">
<path d="M69.6951 15.0002L20.9951 63.7002L69.6951 112.4L81.7601 100.325L45.1301 63.6952L81.7601 27.0652L69.6951 15.0002ZM132.955 112.39L181.655 63.6902L132.955 14.9902L120.89 27.0652L157.52 63.6952L120.89 100.325L132.955 112.39Z" fill="white"/>
<path d="M197 73H137C133.686 73 131 75.6863 131 79V139C131 142.314 133.686 145 137 145H197C200.314 145 203 142.314 203 139V79C203 75.6863 200.314 73 197 73Z" fill="#242424"/>
<path d="M191 79H143C139.686 79 137 81.6863 137 85V133C137 136.314 139.686 139 143 139H191C194.314 139 197 136.314 197 133V85C197 81.6863 194.314 79 191 79Z" fill="#D14F4F"/>
<path d="M181.5 95.5L153.5 123.5M153.5 95.5L181.5 123.5L153.5 95.5Z" stroke="white" stroke-width="5" stroke-linecap="round"/>
</svg>
