<svg width="323" height="202" viewBox="0 0 323 202" fill="none" xmlns="http://www.w3.org/2000/svg">
<rect width="323" height="202" fill="#191919"/>
<path d="M27 14C27 11.7909 28.7909 10 31 10H90V202H31C28.7909 202 27 200.209 27 198V14Z" fill="#1E1E1E"/>
<rect x="90" y="10" width="233" height="192" fill="#242424"/>
<rect x="90" y="10" width="233" height="18" fill="#363636"/>
<rect x="97" y="16" width="30" height="6" rx="2" fill="#DEDEDE"/>
<path d="M106.517 163.445C111.534 163.445 115.601 159.378 115.601 154.361C115.601 149.344 111.534 145.277 106.517 145.277C101.5 145.277 97.4326 149.344 97.4326 154.361C97.4326 159.378 101.5 163.445 106.517 163.445Z" fill="#686868"/>
<path d="M150.206 145.277H124.252C123.296 145.277 122.522 146.052 122.522 147.008V150.468C122.522 151.424 123.296 152.198 124.252 152.198H150.206C151.162 152.198 151.936 151.424 151.936 150.468V147.008C151.936 146.052 151.162 145.277 150.206 145.277Z" fill="#E8E8E8"/>
<path d="M178.756 145.277H157.992C157.037 145.277 156.262 146.052 156.262 147.008V150.468C156.262 151.424 157.037 152.198 157.992 152.198H178.756C179.711 152.198 180.486 151.424 180.486 150.468V147.008C180.486 146.052 179.711 145.277 178.756 145.277Z" fill="#676767"/>
<path d="M141.555 158.255H124.252C123.296 158.255 122.522 159.029 122.522 159.985V161.715C122.522 162.671 123.296 163.445 124.252 163.445H141.555C142.51 163.445 143.285 162.671 143.285 161.715V159.985C143.285 159.029 142.51 158.255 141.555 158.255Z" fill="white"/>
<path d="M185.677 158.255H148.476C147.52 158.255 146.746 159.029 146.746 159.985V161.715C146.746 162.671 147.52 163.445 148.476 163.445H185.677C186.632 163.445 187.407 162.671 187.407 161.715V159.985C187.407 159.029 186.632 158.255 185.677 158.255Z" fill="white"/>
<path d="M236.72 158.255H192.598C191.642 158.255 190.868 159.029 190.868 159.985V161.715C190.868 162.671 191.642 163.445 192.598 163.445H236.72C237.676 163.445 238.45 162.671 238.45 161.715V159.985C238.45 159.029 237.676 158.255 236.72 158.255Z" fill="white"/>
<path opacity="0.5" d="M97 131.868H262.242" stroke="#707070" stroke-width="0.86514" stroke-linecap="round"/>
<path d="M150.206 81.257H124.252C123.296 81.257 122.522 82.0316 122.522 82.9872V86.4478C122.522 87.4034 123.296 88.1781 124.252 88.1781H150.206C151.162 88.1781 151.936 87.4034 151.936 86.4478V82.9872C151.936 82.0316 151.162 81.257 150.206 81.257Z" fill="#E8E8E8"/>
<path d="M178.756 81.257H157.992C157.037 81.257 156.262 82.0316 156.262 82.9872V86.4478C156.262 87.4034 157.037 88.1781 157.992 88.1781H178.756C179.711 88.1781 180.486 87.4034 180.486 86.4478V82.9872C180.486 82.0316 179.711 81.257 178.756 81.257Z" fill="#676767"/>
<path d="M190.868 94.2341H124.252C123.296 94.2341 122.522 95.0088 122.522 95.9644V97.6947C122.522 98.6503 123.296 99.425 124.252 99.425H190.868C191.823 99.425 192.598 98.6503 192.598 97.6947V95.9644C192.598 95.0088 191.823 94.2341 190.868 94.2341Z" fill="#68ABEE"/>
<path d="M146.746 106.708H130.308C129.352 106.708 128.578 107.483 128.578 108.439V110.169C128.578 111.124 129.352 111.899 130.308 111.899H146.746C147.701 111.899 148.476 111.124 148.476 110.169V108.439C148.476 107.483 147.701 106.708 146.746 106.708Z" fill="#68ABEE"/>
<path d="M215.957 114.997H130.308C129.352 114.997 128.578 115.772 128.578 116.728V118.458C128.578 119.413 129.352 120.188 130.308 120.188H215.957C216.912 120.188 217.687 119.413 217.687 118.458V116.728C217.687 115.772 216.912 114.997 215.957 114.997Z" fill="#888888"/>
<path d="M122.954 105.913V120.621" stroke="#707070" stroke-width="0.86514" stroke-linecap="round"/>
<path d="M106.517 99.4249C111.534 99.4249 115.601 95.3579 115.601 90.3409C115.601 85.324 111.534 81.257 106.517 81.257C101.5 81.257 97.4326 85.324 97.4326 90.3409C97.4326 95.3579 101.5 99.4249 106.517 99.4249Z" fill="#686868"/>
<path d="M106.517 56.1679C111.534 56.1679 115.601 52.1009 115.601 47.084C115.601 42.067 111.534 38 106.517 38C101.5 38 97.4326 42.067 97.4326 47.084C97.4326 52.1009 101.5 56.1679 106.517 56.1679Z" fill="#686868"/>
<path d="M150.206 38H124.252C123.296 38 122.522 38.7747 122.522 39.7303V43.1908C122.522 44.1464 123.296 44.9211 124.252 44.9211H150.206C151.162 44.9211 151.936 44.1464 151.936 43.1908V39.7303C151.936 38.7747 151.162 38 150.206 38Z" fill="#E8E8E8"/>
<path d="M178.756 38H157.992C157.037 38 156.262 38.7747 156.262 39.7303V43.1908C156.262 44.1464 157.037 44.9211 157.992 44.9211H178.756C179.711 44.9211 180.486 44.1464 180.486 43.1908V39.7303C180.486 38.7747 179.711 38 178.756 38Z" fill="#676767"/>
<path d="M202.98 50.9771H124.252C123.296 50.9771 122.522 51.7517 122.522 52.7073V54.4376C122.522 55.3932 123.296 56.1679 124.252 56.1679H202.98C203.935 56.1679 204.71 55.3932 204.71 54.4376V52.7073C204.71 51.7517 203.935 50.9771 202.98 50.9771Z" fill="white"/>
<path d="M145.88 62.2239H124.252C123.296 62.2239 122.522 62.9985 122.522 63.9542V65.6844C122.522 66.64 123.296 67.4147 124.252 67.4147H145.88C146.836 67.4147 147.611 66.64 147.611 65.6844V63.9542C147.611 62.9985 146.836 62.2239 145.88 62.2239Z" fill="white"/>
<path d="M192.598 62.2239H152.802C151.846 62.2239 151.071 62.9985 151.071 63.9542V65.6844C151.071 66.64 151.846 67.4147 152.802 67.4147H192.598C193.554 67.4147 194.328 66.64 194.328 65.6844V63.9542C194.328 62.9985 193.554 62.2239 192.598 62.2239Z" fill="white"/>
<path d="M265.27 50.9771H209.901C208.945 50.9771 208.17 51.7517 208.17 52.7073V54.4376C208.17 55.3932 208.945 56.1679 209.901 56.1679H265.27C266.225 56.1679 267 55.3932 267 54.4376V52.7073C267 51.7517 266.225 50.9771 265.27 50.9771Z" fill="white"/>
<rect x="90" y="184" width="233" height="18" fill="#363636"/>
<circle cx="317" cy="5" r="2" fill="#C4C4C4"/>
<circle cx="310" cy="5" r="2" fill="#C4C4C4"/>
<circle cx="303" cy="5" r="2" fill="#C4C4C4"/>
<line x1="4.5" y1="34.5" x2="21.5" y2="34.5" stroke="#414141" stroke-linecap="round"/>
<rect x="30" y="16" width="36" height="6" rx="2" fill="#F3F3F3"/>
<rect x="30" y="35" width="26" height="4" rx="2" fill="#F3F3F3"/>
<rect x="39" y="46" width="32" height="4" rx="2" fill="#BBBBBB"/>
<rect x="39" y="70" width="29" height="4" rx="2" fill="#BBBBBB"/>
<rect x="39" y="58" width="13" height="4" rx="2" fill="#BBBBBB"/>
<rect x="55" y="58" width="22" height="4" rx="2" fill="#BBBBBB"/>
<rect x="30" y="83" width="26" height="4" rx="2" fill="#F3F3F3"/>
<rect x="39" y="94" width="32" height="4" rx="2" fill="#BBBBBB"/>
<rect x="39" y="118" width="29" height="4" rx="2" fill="#BBBBBB"/>
<rect x="39" y="106" width="13" height="4" rx="2" fill="#BBBBBB"/>
<rect x="55" y="106" width="22" height="4" rx="2" fill="#BBBBBB"/>
<mask id="mask0" mask-type="alpha" maskUnits="userSpaceOnUse" x="4" y="10" width="18" height="18">
<circle cx="13" cy="19" r="9" fill="#C4C4C4"/>
</mask>
<g mask="url(#mask0)">
<circle cx="13" cy="19" r="9" fill="url(#paint0_linear)"/>
<circle cx="11.92" cy="22.24" r="3.6" fill="#F9FAFB"/>
<path d="M4 22.6H6.88L9.04 21.52L11.2 20.8L12.64 21.52L14.44 21.16L16.24 21.52L16.96 21.88L19.12 21.52L20.56 21.88L22 21.16V29.08H16.6H11.92H4V24.04V22.6Z" fill="#C42626"/>
<path d="M6.88 22.6H4V24.04L6.88 22.6Z" fill="#882C2F"/>
<path d="M14.44 21.16L12.64 21.52L11.2 24.04L11.92 29.08H16.6L15.88 27.64L16.24 22.96L16.96 21.88L16.24 21.52L14.44 21.16Z" fill="#AF373B"/>
</g>
<mask id="mask1" mask-type="alpha" maskUnits="userSpaceOnUse" x="4" y="42" width="18" height="18">
<circle cx="13" cy="51" r="9" fill="#C4C4C4"/>
</mask>
<g mask="url(#mask1)">
<circle cx="13" cy="51" r="9" fill="#D6D4D5"/>
<path d="M13.612 53.8162C19.048 49.6124 22.0252 53.8162 22.0252 53.8162V60.4402H5.89721L7.49201 53.988C7.99666 53.5705 8.17601 58.02 13.612 53.8162Z" fill="url(#paint1_linear)"/>
<path d="M4.53998 54.0601C4.53998 54.0601 8.10867 49.2615 12.388 54.9961C16.3011 60.2399 20.3145 56.741 20.668 55.8518V55.6801C20.7021 55.7083 20.7011 55.7686 20.668 55.8518V60.684H4.53998V54.0601Z" fill="url(#paint2_linear)"/>
<path d="M21.568 47.1119C21.568 48.2254 20.6654 49.1279 19.552 49.1279C18.4386 49.1279 17.536 48.2254 17.536 47.1119C17.536 45.9985 18.4386 45.0959 19.552 45.0959C20.6654 45.0959 21.568 45.9985 21.568 47.1119Z" fill="#E76563"/>
<path d="M19.12 49.0559H19.984V49.4879H19.12V49.0559Z" fill="#E76563"/>
<rect x="19.12" y="49.344" width="0.864" height="0.072" fill="white"/>
<path d="M19.264 49.488H19.336V49.776H19.264V49.488Z" fill="#4F65B6"/>
<path d="M19.48 49.488H19.624V49.776H19.48V49.488Z" fill="#4F65B6"/>
<path d="M19.768 49.488H19.84V49.776H19.768V49.488Z" fill="#4F65B6"/>
<path d="M19.048 49.776H20.056L19.984 50.28H19.12L19.048 49.776Z" fill="#4F65B6"/>
</g>
<circle cx="20" cy="45" r="3.5" fill="#EF3B3B" stroke="black"/>
<mask id="mask2" mask-type="alpha" maskUnits="userSpaceOnUse" x="4" y="65" width="18" height="18">
<circle cx="13" cy="74" r="9" fill="#C4C4C4"/>
</mask>
<g mask="url(#mask2)">
<circle cx="13" cy="74" r="9" fill="url(#paint3_linear)"/>
<path d="M11.056 79.184L13.936 75.764V80.516L11.992 80.336L11.056 79.184Z" fill="#2E2816"/>
<path d="M5.97998 76.2679L13.72 80.3719L13.792 85.0159L5.97998 82.3519L5.15198 79.1839L5.97998 76.2679Z" fill="url(#paint4_linear)"/>
<path d="M4.75598 78.0319L5.97998 76.2679L5.22398 79.4719L4.93598 78.5359L4.75598 78.0319Z" fill="#7EA6A6"/>
<path d="M19.12 68.708L21.64 70.544L24.484 76.124L22.468 79.94L19.12 68.708Z" fill="#EDEDED"/>
<path d="M12.964 79.976L13.864 80.444L13.936 84.008L13 83.972L12.964 79.976Z" fill="#878787" fill-opacity="0.5"/>
<path d="M13.468 75.584L19.12 68.708L23.008 79.112L13.72 85.736L13.468 75.584Z" fill="url(#paint5_linear)"/>
</g>
<mask id="mask3" mask-type="alpha" maskUnits="userSpaceOnUse" x="4" y="88" width="18" height="18">
<circle cx="13" cy="97" r="9" fill="#C4C4C4"/>
</mask>
<g mask="url(#mask3)">
<circle cx="13" cy="97" r="9" fill="url(#paint6_linear)"/>
<path d="M4.252 89.404C4.252 89.404 11.236 87.2439 16.024 92.284C20.812 97.324 19.732 106.396 19.732 106.396H4.252L3.604 97.936L4.252 89.404Z" fill="url(#paint7_linear)"/>
<path d="M14.404 106.396C12.208 111.508 19.732 106.396 19.732 106.396C19.732 106.396 20.488 100.348 18.508 95.956C16.528 91.564 13.72 90.448 13.72 90.448C13.72 90.448 16.6 101.284 14.404 106.396Z" fill="url(#paint8_linear)"/>
</g>
<mask id="mask4" mask-type="alpha" maskUnits="userSpaceOnUse" x="4" y="110" width="18" height="18">
<circle cx="13" cy="119" r="9" fill="#C4C4C4"/>
</mask>
<g mask="url(#mask4)">
<circle cx="13" cy="119" r="9" fill="url(#paint9_linear)"/>
<path d="M3.35199 122.708L22.216 122.708" stroke="#8181B1" stroke-width="0.144"/>
<path d="M3.28003 121.376L22.144 121.376" stroke="#A2A2BE" stroke-width="0.144"/>
<path d="M3.56799 119.936L22.432 119.936" stroke="#ADADBD" stroke-width="0.216"/>
<path d="M3.784 118.496L22.648 118.496" stroke="#BBBBCD" stroke-width="0.216"/>
<line x1="3.35199" y1="124.004" x2="22.216" y2="124.004" stroke="#8181B1" stroke-width="0.072"/>
<line x1="3.35199" y1="125.3" x2="22.216" y2="125.3" stroke="#8181B1" stroke-width="0.072"/>
<path d="M13.144 122.816L13.828 123.824C13.828 123.824 13.936 124.256 13.828 124.328C13.72 124.4 13.288 123.824 13.18 123.5C13.072 123.176 13.144 122.816 13.144 122.816Z" fill="#E6E7F4"/>
<path d="M13.828 124.328V123.824C13.828 123.824 15.304 123.608 16.708 122.816C18.112 122.024 18.364 120.944 18.364 120.944C18.364 120.944 18.292 121.952 16.924 123.032C15.556 124.112 13.828 124.328 13.828 124.328Z" fill="#E6E7F4"/>
<path d="M18.364 120.944C15.448 120.764 13.144 122.826 13.144 122.826L13.828 123.834C13.828 123.834 17.644 123.248 18.364 120.944Z" fill="white"/>
<path d="M18.256 121.016C15.6819 120.86 13.252 122.816 13.252 122.816L13.864 123.716C13.864 123.716 17.6204 123.017 18.256 121.016Z" fill="url(#paint10_linear)"/>
</g>
<defs>
<linearGradient id="paint0_linear" x1="13" y1="10" x2="13" y2="28" gradientUnits="userSpaceOnUse">
<stop stop-color="#AAB6BD"/>
<stop offset="1" stop-color="#D4DDE1"/>
</linearGradient>
<linearGradient id="paint1_linear" x1="14.908" y1="54.744" x2="22.756" y2="61.08" gradientUnits="userSpaceOnUse">
<stop stop-color="#4F65B6"/>
<stop offset="1" stop-color="#C6D0F1"/>
</linearGradient>
<linearGradient id="paint2_linear" x1="8.39198" y1="54.276" x2="21.496" y2="60.324" gradientUnits="userSpaceOnUse">
<stop stop-color="#4F65B6"/>
<stop offset="1" stop-color="#C6D0F1"/>
</linearGradient>
<linearGradient id="paint3_linear" x1="9.292" y1="65.432" x2="18.22" y2="82.388" gradientUnits="userSpaceOnUse">
<stop stop-color="#009092"/>
<stop offset="1" stop-color="#79C6C8"/>
</linearGradient>
<linearGradient id="paint4_linear" x1="9.39998" y1="76.2679" x2="9.39998" y2="85.0519" gradientUnits="userSpaceOnUse">
<stop stop-color="#CBCBCB"/>
<stop offset="1" stop-color="#FAFAFA"/>
</linearGradient>
<linearGradient id="paint5_linear" x1="18.238" y1="68.708" x2="18.238" y2="85.736" gradientUnits="userSpaceOnUse">
<stop stop-color="#95ABA9"/>
<stop offset="1" stop-color="#DCDCDC"/>
</linearGradient>
<linearGradient id="paint6_linear" x1="10.876" y1="87.604" x2="17.86" y2="105.136" gradientUnits="userSpaceOnUse">
<stop stop-color="#41486A"/>
<stop offset="1" stop-color="#3B3F5C"/>
</linearGradient>
<linearGradient id="paint7_linear" x1="7.312" y1="91.168" x2="19.84" y2="107.224" gradientUnits="userSpaceOnUse">
<stop stop-color="#4C7799"/>
<stop offset="0.9999" stop-color="#39AEBF"/>
<stop offset="1" stop-color="#4C7799" stop-opacity="0"/>
</linearGradient>
<linearGradient id="paint8_linear" x1="16.636" y1="96.568" x2="12.388" y2="87.316" gradientUnits="userSpaceOnUse">
<stop stop-color="#DD4878"/>
<stop offset="1" stop-color="#D7E1E8"/>
</linearGradient>
<linearGradient id="paint9_linear" x1="9.94" y1="109.244" x2="13.756" y2="125.912" gradientUnits="userSpaceOnUse">
<stop stop-color="#847DAF"/>
<stop offset="1" stop-color="#4547AE"/>
</linearGradient>
<linearGradient id="paint10_linear" x1="15.484" y1="122.024" x2="16.924" y2="123.5" gradientUnits="userSpaceOnUse">
<stop stop-color="#DFDFE1"/>
<stop offset="1" stop-color="#F5F4FB"/>
</linearGradient>
</defs>
</svg>
