<svg xmlns="http://www.w3.org/2000/svg" xmlns:xlink="http://www.w3.org/1999/xlink" width="168" height="48" fill="none" xmlns:v="https://vecta.io/nano"><style><![CDATA[.B{stroke:#000}.C{stroke-width:1.333}.D{stroke-linejoin:round}.E{fill:#fcea2b}.F{fill:#ea5a47}.G{stroke-linecap:round}.H{fill:#d22f27}.I{stroke-miterlimit:10}]]></style><use xlink:href="#B" class="E"/><use xlink:href="#C" fill="#fff"/><use xlink:href="#D" class="F"/><use xlink:href="#B" class="B C D"/><path d="M19.046 24.148c1.105 0 2-1.613 2-3.602s-.895-3.602-2-3.602-2 1.613-2 3.602.895 3.602 2 3.602zm9.908.002c1.105 0 2-1.613 2-3.602s-.895-3.602-2-3.602-2 1.613-2 3.602.895 3.602 2 3.602z" fill="#000"/><g class="B C D"><use xlink:href="#C"/><use xlink:href="#D"/></g><path d="M78.112 45.334H62.667v-7.778l10-5c-1.736 5.691 4.97 9.705 8.333 7.778l-2.889 5zm12.749-.001h15.445v-7.778l-10-5c1.736 5.691-4.97 9.705-8.333 7.778l2.889 5z" fill="#92d3f5"/><g class="E"><path d="M79.887 40.739c-4.117 0-7.449-3.193-7.449-7.138 4.417-2.68 4.854-9.226 5.312-12.976.333-1.927 1.194-1.927 1.5-3.854l1.75-11.873c.417-2.232 3.053-2.004 3.486-.232v31.278c0 1.29-1.931 2.333-2.597 2.333-.542 0-2.002 2.02-2.002 2.462z"/><path d="M89.086 40.739c4.117 0 7.449-3.193 7.449-7.138-4.417-2.68-4.854-9.226-5.312-12.976-.333-1.927-1.194-1.927-1.5-3.854l-1.75-11.873c-.417-2.232-3.053-2.004-3.486-.232v31.278c0 1.29 1.931 2.333 2.597 2.333.542 0 2.002 2.02 2.002 2.462z"/></g><g class="B C D I"><path d="M78.111 45.334H62.666v-7.778l10-5c-1.736 5.691 4.97 9.705 8.333 7.778l-2.889 5z"/><path d="M79.886 40.74c0-.442 1.46-2.462 2.002-2.462.667 0 2.597-1.044 2.597-2.333V4.667c-.433-1.772-3.069-2-3.486.232l-1.75 11.873c-.306 1.927-1.167 1.927-1.5 3.854-.458 3.75-.895 10.296-5.312 12.976" class="G"/><path d="M90.861 45.334h15.445v-7.778l-10-5c1.736 5.691-4.97 9.705-8.333 7.778l2.889 5z"/><path d="M89.085 40.74c0-.442-1.46-2.462-2.002-2.462-.667 0-2.597-1.044-2.597-2.333V4.667c.433-1.772 3.069-2 3.486.232l1.75 11.873c.305 1.927 1.167 1.927 1.5 3.854.458 3.75.895 10.296 5.312 12.976" class="G"/></g><path d="M137.453 13.454l8.38 8.379 8.379 8.38-14.353 5.974-14.353 5.974 5.974-14.353 5.973-14.353z" fill="#f1b31c"/><path d="M146.666 23.333l-9.538-9.554-6.201 14.58-6.2 14.58 21.939-19.606z" class="E"/><path d="M130.148 30.19l7.375 7.375-3.687 1.501-5.198-5.198 1.51-3.678z" class="F"/><path d="M131.562 36.832l2.274 2.234 3.687-1.501-3.2-3.201-2.761 2.468z" class="H"/><path d="M133.869 21.442l4.464 4.464 7.8 7.799-4.182 1.909-5.448-5.448-4.403-4.403 1.769-4.321z" class="F"/><path d="M137.69 31.354l4.261 4.26 4.182-1.909-5.226-5.226-3.217 2.874z" class="H"/><use xlink:href="#E" fill="#8967aa"/><use xlink:href="#E" x="20" y="2.667" fill="#f1b31c"/><use xlink:href="#E" x="18" y="16.667" class="H"/><g class="B C D G I"><path d="M153.775 30.426l.112.112-14.58 6.201-14.58 6.201 12.401-29.16"/><path d="M137.2 13.852l16.575 16.574M137.128 13.78l.072.072m13.793-8.94a3.26 3.26 0 0 1 .326.982c.301 1.832-.964 3.609-2.826 3.971"/><path d="M148.622 9.851a3.25 3.25 0 0 0-1.006.243c-1.713.714-2.552 2.729-1.874 4.499m15.453 3.218a3.24 3.24 0 0 1-.362.97c-.914 1.615-3.015 2.206-4.691 1.32m.107.07a3.24 3.24 0 0 0-.935-.442c-1.782-.518-3.699.524-4.282 2.329"/></g><defs ><path id="B" d="M24 39.333c8.468 0 15.333-6.865 15.333-15.333S32.469 8.667 24 8.667 8.667 15.532 8.667 24 15.532 39.333 24 39.333z"/><path id="C" d="M33.73 27.76a7.7 7.7 0 0 1-.58 2.993c-8.327 2.02-16.953.227-18.327-.087-.373-.923-.56-1.911-.553-2.907h.073s9.867 2.393 19.26.047l.127-.047z"/><path id="D" d="M33.15 30.753c-1.193 2.847-4.233 4.82-9.127 4.82-4.94 0-8.02-2.02-9.2-4.907 1.373.313 10 2.107 18.327.087z"/><path id="E" d="M140.197 10.952c.736 0 1.333-.588 1.333-1.314s-.597-1.314-1.333-1.314-1.334.588-1.334 1.314.597 1.314 1.334 1.314z"/></defs></svg>