<svg width="12" height="12" viewBox="0 0 12 12" fill="none" xmlns="http://www.w3.org/2000/svg">
<g clip-path="url(#clip0_13_24)">
<path d="M10.854 3.12557C10.258 2.62938 9.34037 2.29717 8.1035 2.12772L7.1946 5.01762C7.17497 5.12361 7.1412 5.244 7.08884 5.38272C6.99612 5.61457 6.88442 5.80557 6.75317 5.95588C6.62176 6.10658 6.47468 6.22408 6.31175 6.30973C6.14865 6.39489 5.97141 6.45368 5.77985 6.48609C5.58829 6.51826 5.39005 6.52839 5.1853 6.51649C4.98031 6.50458 4.80596 6.47668 4.66249 6.43269C4.51886 6.38878 4.38681 6.31592 4.26642 6.21395C4.1774 6.11382 4.12561 5.9825 4.11145 5.81973C4.09722 5.65696 4.13662 5.45566 4.22975 5.21585C4.31298 5.0074 4.41834 4.82565 4.54604 4.67133C4.67367 4.51684 4.82293 4.39701 4.99358 4.31209C5.15659 4.22693 5.33183 4.16991 5.51945 4.1412C5.70658 4.11273 5.91471 4.10517 6.14318 4.11844C6.33233 4.12962 6.50845 4.15744 6.67187 4.20272C6.74939 4.22403 6.81727 4.25202 6.87629 4.28579L7.5741 2.06692C7.40184 2.05068 7.22564 2.03644 7.0426 2.02591C5.28132 1.92305 3.80103 2.12651 2.60108 2.63517C1.40137 3.14423 0.601437 3.89897 0.20191 4.89932C0.0820034 5.20604 0.0175866 5.49507 0.00809705 5.76665L0.00729267 5.76625C-0.107386 7.73356 1.1569 8.84191 1.93794 9.33473C2.25133 9.54454 2.52999 9.64845 2.52999 9.64845L2.88794 8.50447L2.99377 8.22332C3.46496 8.31243 3.98897 8.37443 4.56784 8.40813C6.34134 8.51155 7.82799 8.30905 9.02777 7.79983C10.2273 7.29117 11.0206 6.54222 11.4075 5.55273C11.794 4.56397 11.6097 3.75478 10.854 3.12557Z" fill="white"/>
</g>
<defs>
<clipPath id="clip0_13_24">
<rect width="11.6" height="11.6" fill="white"/>
</clipPath>
</defs>
</svg>
