<svg width="168" height="48" viewBox="0 0 168 48" fill="none" xmlns="http://www.w3.org/2000/svg">
<path d="M122.794 46.2263C123.645 47.1488 127.152 45.5401 129.919 44.2501C131.993 43.2863 140.292 39.8813 144.417 38.1151C145.53 37.6388 147.15 37.0163 148.317 35.4826C149.352 34.1176 152.097 28.3201 146.569 22.4476C140.959 16.4851 135.18 18.1313 133.02 19.6613C131.749 20.5613 130.714 22.5901 130.249 23.6213C128.284 27.9788 125.483 35.9626 124.343 39.1013C123.507 41.4151 121.95 45.3113 122.794 46.2263Z" fill="#FFC107"/>
<path d="M129.694 24.9338C129.746 25.5863 129.878 26.6476 130.328 28.6913C130.635 30.0938 131.138 31.5638 131.546 32.5351C132.773 35.4563 134.494 36.6338 136.238 37.5788C139.2 39.1838 141.214 39.4838 141.214 39.4838L138.799 40.4701C138.799 40.4701 137.336 40.1663 135.341 39.1838C133.44 38.2463 131.46 36.6601 130.013 33.5551C129.386 32.2088 129.023 30.9038 128.813 29.8688C128.554 28.5863 128.513 27.8588 128.513 27.8588L129.694 24.9338Z" fill="#FF8F00"/>
<path d="M126.728 32.5388C126.728 32.5388 127.028 34.9726 129.038 38.0438C131.393 41.6363 134.682 42.2251 134.682 42.2251L132.496 43.1251C132.496 43.1251 130.055 42.3788 127.733 39.2101C126.286 37.2338 125.881 34.8713 125.881 34.8713L126.728 32.5388Z" fill="#FF8F00"/>
<path d="M124.647 38.3062C124.647 38.3062 125.194 40.4062 126.394 41.9737C127.823 43.8449 129.642 44.3887 129.642 44.3887L127.965 45.1312C127.965 45.1312 126.694 44.8649 125.303 43.1024C124.245 41.7637 123.945 40.2262 123.945 40.2262L124.647 38.3062Z" fill="#FF8F00"/>
<g opacity="0.44">
<path opacity="0.44" d="M123.735 43.6387C123.66 43.4699 123.66 43.2787 123.739 43.1137L133.29 23.3062L134.862 29.2124L124.812 43.7287C124.542 44.1337 123.934 44.0812 123.735 43.6387Z" fill="#FFFDE7"/>
</g>
<path d="M135.619 31.1964C140.082 36.4164 145.163 35.7639 146.854 34.4439C148.549 33.1202 149.888 28.5714 145.444 23.4377C140.787 18.0602 135.514 19.5939 134.296 20.7564C133.077 21.9189 131.524 26.4077 135.619 31.1964Z" fill="url(#paint0_linear)"/>
<path d="M150.945 33.3449C149.318 31.9799 148.451 32.2237 147.289 32.7074C145.789 33.3299 143.43 33.7912 140.228 32.7074L141.191 30.3862C143.093 31.0274 144.469 30.7162 145.658 30.0149C147.188 29.1149 149.28 27.8812 152.535 30.6149C153.893 31.7549 155.284 32.5124 156.304 32.1674C157.046 31.9199 157.44 30.8137 157.639 29.9324C157.658 29.8537 157.688 29.6287 157.71 29.4299C157.89 28.0537 158.19 25.0837 160.403 23.5649C162.769 21.9412 165.255 21.9412 165.255 21.9412L165.705 26.4112C164.561 26.2424 163.766 26.4749 163.095 26.8462C160.568 28.2524 162.769 33.6524 158.835 35.4674C155.051 37.2262 151.958 34.1924 150.945 33.3449Z" fill="#03A9F4"/>
<path d="M137.025 27.645L135.397 26.1863C138.386 22.8488 137.599 20.3963 137.025 18.6113C136.909 18.2513 136.8 17.91 136.729 17.5837C136.474 16.4287 136.421 15.4238 136.5 14.5463C135.352 13.1175 134.846 11.6212 134.812 11.52C134.115 9.40875 134.64 7.35 135.844 5.41875C138.277 1.5 142.684 1.5 142.684 1.5L144.154 5.43375C143.036 5.38875 139.372 5.445 138.247 7.21875C136.826 9.45375 137.76 10.8337 137.827 10.9912C138.101 10.635 138.379 10.35 138.626 10.1288C140.422 8.535 141.982 8.30625 142.976 8.39625C144.094 8.4975 145.106 9.06 145.83 9.9825C146.621 10.995 146.947 12.3113 146.696 13.5075C146.452 14.6738 145.676 15.66 144.51 16.2863C142.474 17.3813 140.779 17.2312 139.642 16.8525C139.65 16.8787 139.654 16.9087 139.661 16.935C139.702 17.1225 139.785 17.385 139.882 17.6887C140.546 19.7437 141.78 23.0063 137.025 27.645ZM139.781 13.5712C139.999 13.7287 140.227 13.86 140.464 13.9537C141.251 14.2687 142.11 14.1637 143.085 13.6387C143.659 13.3312 143.726 13.0013 143.749 12.8925C143.816 12.5663 143.704 12.15 143.46 11.8387C143.246 11.565 142.999 11.4225 142.702 11.3925C142.14 11.3437 141.379 11.7 140.617 12.3787C140.254 12.705 139.976 13.1062 139.781 13.5712Z" fill="#F44336"/>
<path d="M143.539 28.2563L141.21 28.1925C141.21 28.1925 142.316 21.945 145.897 20.895C146.569 20.7 147.304 20.5013 148.042 20.3925C148.481 20.325 149.175 20.2238 149.516 20.0963C149.595 19.5075 149.347 18.7575 149.07 17.9063C148.852 17.2463 148.627 16.5675 148.507 15.825C148.275 14.3775 148.661 13.0988 149.595 12.2175C150.735 11.1488 152.576 10.8075 154.654 11.28C155.839 11.55 156.712 12.1313 157.481 12.6413C158.58 13.3725 159.221 13.7438 160.564 12.84C162.187 11.745 160.065 7.45876 158.936 4.98376L163.147 3.22876C163.714 4.46626 166.447 10.8338 164.644 14.4675C164.036 15.69 162.99 16.5 161.617 16.8038C158.632 17.4713 156.885 16.3088 155.61 15.4613C155.006 15.06 154.477 14.745 153.904 14.58C149.917 13.4438 155.482 19.3088 152.876 21.945C151.312 23.5238 147.491 23.94 147.244 24C144.784 24.5925 143.539 28.2563 143.539 28.2563Z" fill="#F48FB1"/>
<path d="M136.497 14.5464C136.426 15.3714 136.392 15.8626 136.606 16.9351C137.637 17.6926 139.883 17.6926 139.883 17.6926C139.786 17.3889 139.699 17.1264 139.662 16.9389C139.654 16.9126 139.651 16.8826 139.643 16.8564C137.359 15.7164 136.497 14.5464 136.497 14.5464Z" fill="#C92B27"/>
<path d="M131.825 18.2401L127.947 16.3388L129.879 13.5488L132.92 15.5626L131.825 18.2401Z" fill="#FFC107"/>
<path d="M126.109 12.975C124.129 12.7087 122.112 11.0287 121.891 10.8375L123.837 8.55371C124.426 9.05246 125.674 9.88871 126.511 10.0012L126.109 12.975Z" fill="#FB8C00"/>
<path d="M129.604 7.97611L126.754 7.04236C127.08 6.04486 127.166 4.96861 126.998 3.92986L129.96 3.45361C130.204 4.96111 130.08 6.52486 129.604 7.97611Z" fill="#03A9F4"/>
<path d="M150.334 5.10573L147.403 5.74683L148.25 9.61535L151.18 8.97425L150.334 5.10573Z" fill="#FB8C00"/>
<path d="M154.673 6.66367L152.61 4.48492C153.69 3.46117 153.938 2.12242 153.938 2.10742L156.9 2.59117C156.863 2.82742 156.484 4.94992 154.673 6.66367Z" fill="#FFC107"/>
<path d="M158.439 17.3992L155.819 18.218L156.714 21.0815L159.334 20.2627L158.439 17.3992Z" fill="#FB8C00"/>
<path d="M156.582 42.3863L153.601 42.0338C153.728 40.9725 152.937 39.6713 152.72 39.3825L155.12 37.5825C155.3 37.8188 156.863 39.9825 156.582 42.3863Z" fill="#F44336"/>
<path d="M165.139 38.5839C164.018 38.4151 162.87 38.3476 161.738 38.3889L161.637 35.3889C162.953 35.3439 164.284 35.4189 165.585 35.6176L165.139 38.5839Z" fill="#FB8C00"/>
<path d="M163.213 40.5786L161.105 42.7134L164.006 45.5774L166.114 43.4426L163.213 40.5786Z" fill="#F48FB1"/>
<path d="M157.08 26.2273L154.912 23.749L152.434 25.9165L154.601 28.3947L157.08 26.2273Z" fill="#F44336"/>
<g clip-path="url(#clip0)">
<path d="M66.7683 34.2337C66.7496 34.2187 66.7308 34.2037 66.7121 34.1924C66.5921 34.1212 66.5208 34.0124 66.4946 33.8849C66.4721 33.7574 66.5021 33.6224 66.5808 33.4949C67.4508 33.0824 73.8558 30.0262 75.4383 28.5899C75.8471 28.2187 76.0421 27.2812 76.4058 25.3724C76.4883 24.9374 76.5783 24.4724 76.6758 23.9812C76.7696 23.5274 77.0171 22.6874 77.2758 21.7987C77.6321 20.5874 77.9996 19.3387 78.1233 18.5999C79.1508 12.3862 80.0058 4.68369 80.0133 4.60869C80.1521 3.26994 80.4446 1.90869 81.5321 1.90869C82.8146 1.90869 83.7108 2.71494 83.7108 3.87369L83.7896 33.5099C83.7896 35.6324 82.9833 35.9399 82.0496 36.2962C81.5246 36.4949 80.9321 36.7237 80.5121 37.2824C79.6533 38.4299 78.7346 39.9524 77.8458 41.4262C77.4671 42.0524 77.0808 42.6974 76.7021 43.3012L66.7683 34.2337V34.2337Z" fill="url(#paint1_radial)"/>
<path d="M81.536 2.28003C82.616 2.28003 83.3398 2.91753 83.3398 3.87003L83.4185 33.5025C83.4185 35.3663 82.8223 35.595 81.9185 35.94C81.3485 36.1575 80.6998 36.405 80.216 37.05C79.346 38.2125 78.4235 39.7425 77.531 41.2275C77.231 41.7225 76.9273 42.2288 76.6273 42.7163L67.0273 33.9563C66.9935 33.9263 66.956 33.8963 66.9148 33.87C66.881 33.8513 66.8735 33.8325 66.8735 33.8138C66.8698 33.8025 66.8698 33.7875 66.8735 33.7725C68.111 33.1838 74.141 30.2813 75.6973 28.8675C76.196 28.4138 76.391 27.4913 76.781 25.4438C76.8635 25.0125 76.9535 24.5438 77.051 24.0563C77.141 23.6175 77.3848 22.785 77.6435 21.9075C78.0035 20.685 78.3748 19.425 78.4985 18.66C79.526 12.435 80.381 4.72503 80.3923 4.64253C80.5648 2.98503 80.906 2.28003 81.536 2.28003V2.28003ZM81.536 1.53003C80.0473 1.53003 79.7735 3.35628 79.646 4.56378C79.646 4.56378 78.7948 12.2588 77.7598 18.5363C77.5498 19.8075 76.5335 22.8263 76.316 23.9063C75.8548 26.1713 75.6185 27.9225 75.191 28.3125C73.5523 29.8013 66.3373 33.195 66.3373 33.195C65.9848 33.6413 66.0635 34.23 66.5173 34.5075L76.781 43.875C78.0935 41.8125 79.5223 39.225 80.8123 37.5C81.8435 36.12 84.1648 37.125 84.1648 33.5025L84.086 3.87003C84.086 2.58003 83.1185 1.53003 81.536 1.53003V1.53003Z" fill="#EDA600"/>
<path d="M77.838 48.9976L58.9043 48.7876L59.1143 34.23L71.0168 28.8863C71.5755 28.6388 72.2243 28.95 72.3743 29.5425C72.7305 30.9338 73.5593 33.4013 75.3743 35.8763C77.0843 38.2088 78.9293 40.0088 80.0768 41.0363C80.7368 41.6288 80.9243 42.585 80.5305 43.38L75.9705 46.8863L77.838 48.9976V48.9976Z" fill="url(#paint2_linear)"/>
<path d="M79.7246 6.75003C79.7246 6.75003 80.0321 4.81128 81.7946 4.81128C83.5571 4.81128 83.6771 6.75003 83.6771 6.75003" stroke="#EDA600" stroke-width="0.75" stroke-miterlimit="10" stroke-linecap="round" stroke-linejoin="round"/>
<path d="M79.166 11.6251C79.166 11.6251 79.5523 9.50635 81.4198 9.50635C83.2873 9.50635 83.7148 11.6251 83.7148 11.6251" stroke="#EDA600" stroke-width="0.75" stroke-miterlimit="10" stroke-linecap="round" stroke-linejoin="round"/>
<g opacity="0.2">
<path opacity="0.2" d="M71.3282 29.9813C71.7032 31.3875 72.5845 33.9713 74.467 36.54C76.207 38.91 78.0707 40.7475 79.327 41.8725C79.552 42.075 79.6495 42.3825 79.5932 42.6713L75.3107 45.795C75.0595 45.9788 74.8982 46.2525 74.857 46.56C74.8157 46.8675 74.9057 47.175 75.1007 47.415L75.4532 47.8463L60.052 47.6738L60.2357 34.965L71.3282 29.9813V29.9813ZM71.422 28.8C71.287 28.8 71.152 28.8263 71.0207 28.8863L59.1182 34.23L58.9082 48.7875L77.842 48.9975L75.9707 46.7025L80.5307 43.38C80.9245 42.585 80.7407 41.625 80.077 41.0363C78.9295 40.0088 77.0882 38.2125 75.3745 35.8763C73.5595 33.405 72.7307 30.9375 72.3745 29.5425C72.262 29.0888 71.8532 28.8 71.422 28.8V28.8Z" fill="#424242"/>
</g>
<path d="M91.1207 43.2974C90.7457 42.6937 90.3557 42.0487 89.977 41.4224C89.0882 39.9487 88.1695 38.4224 87.3107 37.2787C86.8907 36.7199 86.2982 36.4912 85.7732 36.2924C84.8395 35.9362 84.0332 35.6287 84.0332 33.5062L84.112 3.87369C84.112 2.71494 85.0082 1.90869 86.2907 1.90869C87.3782 1.90869 87.667 3.27369 87.8095 4.60869C87.817 4.68744 88.672 12.3899 89.6995 18.6037C89.8195 19.3424 90.1907 20.5949 90.547 21.8024C90.8095 22.6912 91.057 23.5312 91.147 23.9849C91.2482 24.4762 91.3382 24.9449 91.4207 25.3799C91.7845 27.2887 91.9795 28.2224 92.3882 28.5937C93.967 30.0299 100.376 33.0862 101.246 33.4987C101.324 33.6224 101.354 33.7574 101.332 33.8849C101.309 34.0124 101.234 34.1212 101.114 34.1924C101.096 34.2037 101.077 34.2187 101.058 34.2337L91.1207 43.2974V43.2974Z" fill="url(#paint3_radial)"/>
<path d="M86.2878 2.28003C86.9178 2.28003 87.259 2.98878 87.4353 4.64628C87.4428 4.72503 88.3015 12.435 89.329 18.66C89.4528 19.4213 89.8278 20.685 90.184 21.9038C90.4428 22.785 90.6865 23.6138 90.7765 24.0525C90.8778 24.5438 90.964 25.0088 91.0465 25.44C91.4365 27.4875 91.6315 28.41 92.1303 28.8638C93.6865 30.2813 99.7165 33.18 100.954 33.7688C100.958 33.7838 100.958 33.7988 100.954 33.81C100.95 33.825 100.943 33.8438 100.913 33.8663C100.872 33.8925 100.834 33.9188 100.8 33.9525L91.2003 42.7125C90.9003 42.225 90.5965 41.7188 90.2965 41.2238C89.404 39.7425 88.4778 38.2088 87.6115 37.0463C87.1278 36.4013 86.479 36.1538 85.909 35.9363C85.0053 35.5913 84.409 35.3625 84.409 33.5025L84.4878 3.86628C84.484 2.91753 85.2115 2.28003 86.2878 2.28003V2.28003ZM86.2878 1.53003C84.7053 1.53003 83.734 2.58003 83.734 3.87003L83.6553 33.5025C83.6553 37.125 85.9765 36.12 87.0078 37.5C88.2978 39.225 89.7265 41.8125 91.039 43.875L101.303 34.5113C101.757 34.2338 101.839 33.645 101.483 33.1988C101.483 33.1988 94.2678 29.805 92.629 28.3163C92.2015 27.9263 91.9653 26.175 91.504 23.91C91.2865 22.83 90.2703 19.8113 90.0603 18.54C89.0253 12.2625 88.174 4.56753 88.174 4.56753C88.054 3.35628 87.7765 1.53003 86.2878 1.53003V1.53003Z" fill="#EDA600"/>
<path d="M89.981 48.9976L108.915 48.7876L108.705 34.23L96.8022 28.8863C96.2435 28.6388 95.5947 28.95 95.4447 29.5425C95.0885 30.9338 94.2597 33.4013 92.4447 35.8763C90.7347 38.2088 88.8897 40.0088 87.7422 41.0363C87.0822 41.6288 86.8947 42.585 87.2885 43.38L91.8485 46.8863L89.981 48.9976V48.9976Z" fill="url(#paint4_linear)"/>
<path d="M88.099 6.75003C88.099 6.75003 87.7915 4.81128 86.029 4.81128C84.2665 4.81128 84.1465 6.75003 84.1465 6.75003" stroke="#EDA600" stroke-width="0.75" stroke-miterlimit="10" stroke-linecap="round" stroke-linejoin="round"/>
<path d="M88.6571 11.6251C88.6571 11.6251 88.2709 9.50635 86.4034 9.50635C84.5321 9.50635 84.1084 11.6251 84.1084 11.6251" stroke="#EDA600" stroke-width="0.75" stroke-miterlimit="10" stroke-linecap="round" stroke-linejoin="round"/>
<g opacity="0.2">
<path opacity="0.2" d="M96.4947 29.9813L107.591 34.9613L107.775 47.67L92.3735 47.8425L92.726 47.4113C92.921 47.1713 93.011 46.8638 92.9697 46.5563C92.9285 46.2488 92.7672 45.975 92.516 45.7913L88.2335 42.6675C88.1772 42.3788 88.2747 42.0713 88.4997 41.8688C89.756 40.7438 91.6197 38.9063 93.3597 36.5363C95.2385 33.9713 96.1197 31.3875 96.4947 29.9813V29.9813ZM96.401 28.8C95.966 28.8 95.561 29.0888 95.4447 29.5425C95.0885 30.9338 94.2597 33.4013 92.4447 35.8763C90.7347 38.2088 88.8897 40.0088 87.7422 41.0363C87.0822 41.6288 86.8947 42.585 87.2885 43.38L91.8485 46.7025L89.9772 48.9975L108.911 48.7875L108.701 34.23L96.8022 28.8863C96.671 28.8263 96.536 28.8 96.401 28.8V28.8Z" fill="#424242"/>
</g>
</g>
<path d="M23.707 44.55C13.2445 44.55 1.95703 37.9875 1.95703 23.5875C1.95703 9.1875 13.2445 2.625 23.707 2.625C29.5195 2.625 34.882 4.5375 38.857 8.025C43.1695 11.85 45.457 17.25 45.457 23.5875C45.457 29.925 43.1695 35.2875 38.857 39.1125C34.8745 42.6 29.482 44.55 23.707 44.55Z" fill="url(#paint5_radial)"/>
<path d="M16.5 15.3525C14.9287 15.3525 13.5 16.68 13.5 18.885C13.5 21.09 14.9287 22.4138 16.5 22.4138C18.075 22.4138 19.5 21.0863 19.5 18.885C19.5 16.6838 18.09 15.3525 16.5 15.3525Z" fill="#422B0D"/>
<path d="M16.369 16.8263C15.8365 16.5713 15.1953 16.7963 14.9365 17.3288C14.7378 17.745 14.8278 18.2438 15.1615 18.5663C15.694 18.8213 16.3353 18.5963 16.594 18.0638C16.7928 17.6475 16.7028 17.1488 16.369 16.8263Z" fill="#896024"/>
<path d="M30.8994 15.3525C29.3282 15.3525 27.8994 16.68 27.8994 18.885C27.8994 21.09 29.3282 22.4138 30.8994 22.4138C32.4707 22.4138 33.8994 21.0863 33.8994 18.885C33.8994 16.6838 32.4707 15.3525 30.8994 15.3525Z" fill="#422B0D"/>
<path d="M30.7499 16.8263C30.2174 16.5713 29.5762 16.7963 29.3174 17.3288C29.1187 17.745 29.2087 18.2438 29.5424 18.5663C30.0749 18.8213 30.7162 18.5963 30.9749 18.0638C31.1737 17.6475 31.0837 17.1488 30.7499 16.8263Z" fill="#896024"/>
<path d="M41.8085 11.1262C43.8072 14.3512 44.8497 18.1912 44.8497 22.4625C44.8497 28.8 42.5622 34.1625 38.2497 37.9875C34.2747 41.475 28.8747 43.425 23.0997 43.425C16.3272 43.425 9.22473 40.6687 5.03223 34.8225C9.06723 41.445 16.6572 44.55 23.8497 44.55C29.6247 44.55 35.0247 42.6 38.9997 39.1125C43.3122 35.2875 45.5997 29.925 45.5997 23.5875C45.5997 18.81 44.2985 14.565 41.8085 11.1262Z" fill="#EB8F00"/>
<path d="M38.2761 26.8576C37.7511 25.9088 36.6111 25.4926 35.5986 25.8751C31.7511 26.9963 27.7611 27.5551 23.7523 27.5363C19.7436 27.5551 15.7536 26.9963 11.9061 25.8751C10.8973 25.4926 9.75731 25.9051 9.23231 26.8501C8.72231 27.7913 9.08981 28.8826 9.52106 29.8238C11.9286 35.1113 17.2348 38.2763 23.7223 38.2951H23.7823C30.2698 38.2951 35.5761 35.1113 37.9873 29.8238C38.4148 28.8751 38.7861 27.7988 38.2761 26.8576Z" fill="#422B0D"/>
<path d="M29.7559 36.8024C29.6171 36.6749 29.4746 36.5586 29.3321 36.4274C27.8021 35.0811 25.8221 34.3574 23.7821 34.3986C21.6821 34.3649 19.6384 35.0624 17.9996 36.3749C17.8571 36.4911 17.7071 36.6036 17.5684 36.7499C17.4296 36.8961 17.3546 37.0011 17.2646 37.1249C19.3271 37.9311 21.5246 38.3436 23.7409 38.3324H23.8009C25.9234 38.3324 28.0271 37.9536 30.0146 37.2074C29.9396 37.0649 29.8534 36.9299 29.7559 36.8024Z" fill="#ED7770"/>
<path d="M35.5993 25.8749C31.7518 26.9962 27.7618 27.5549 23.753 27.5362C19.7443 27.5549 15.7543 26.9962 11.9068 25.8749C10.898 25.4924 9.75805 25.9049 9.23305 26.8499C9.15805 26.9924 9.09805 27.1424 9.06055 27.2962C9.1843 27.3599 9.3268 27.4237 9.49555 27.4912C14.0105 29.7524 19.0018 30.8999 24.0493 30.8399C28.8905 30.8962 33.6755 29.8424 38.048 27.7649C38.2243 27.6899 38.3705 27.6187 38.5018 27.5512C38.4718 27.3074 38.393 27.0674 38.2768 26.8499C37.7518 25.9049 36.6118 25.4887 35.5993 25.8749Z" fill="white"/>
<path d="M38.2911 26.8613C37.7586 25.9126 36.6148 25.4926 35.5948 25.8751C31.7473 26.9963 27.7573 27.5551 23.7523 27.5363C19.7436 27.5551 15.7536 26.9963 11.9061 25.8751C10.8973 25.4926 9.75731 25.9051 9.23231 26.8501C8.72231 27.7913 9.08981 28.8826 9.52106 29.8238C9.71231 30.2476 9.92606 30.6638 10.1623 31.0651C10.1623 31.0651 9.37481 28.1476 10.0573 27.3001C10.2898 26.9401 10.6798 26.7151 11.1073 26.6926C11.2836 26.6926 11.4561 26.7226 11.6248 26.7751C15.5398 27.9263 19.6011 28.5076 23.6848 28.5001H23.8161C27.8998 28.5076 31.9611 27.9263 35.8761 26.7751C36.0448 26.7226 36.2173 26.6926 36.3936 26.6926C36.8211 26.7151 37.2148 26.9401 37.4473 27.3001C38.1411 28.1476 37.3423 31.0763 37.3423 31.0763C37.5748 30.6751 37.8073 30.2626 38.0023 29.8351C38.4298 28.8938 38.8011 27.8063 38.2911 26.8613Z" fill="#EB8F00"/>
<defs>
<linearGradient id="paint0_linear" x1="147.895" y1="23.1896" x2="136.732" y2="29.8873" gradientUnits="userSpaceOnUse">
<stop offset="0.0235" stop-color="#8F4700"/>
<stop offset="1" stop-color="#703E2D"/>
</linearGradient>
<radialGradient id="paint1_radial" cx="0" cy="0" r="1" gradientUnits="userSpaceOnUse" gradientTransform="translate(79.3273 14.9794) scale(16.2763 24.2983)">
<stop offset="0.3533" stop-color="#FFCA28"/>
<stop offset="0.8723" stop-color="#FFB300"/>
</radialGradient>
<linearGradient id="paint2_linear" x1="58.9068" y1="38.8988" x2="80.7338" y2="38.8988" gradientUnits="userSpaceOnUse">
<stop stop-color="#2196F3"/>
<stop offset="1" stop-color="#64B5F6"/>
</linearGradient>
<radialGradient id="paint3_radial" cx="0" cy="0" r="1" gradientUnits="userSpaceOnUse" gradientTransform="translate(88.4879 14.9794) rotate(180) scale(16.2763 24.2983)">
<stop offset="0.3533" stop-color="#FFCA28"/>
<stop offset="0.8723" stop-color="#FFB300"/>
</radialGradient>
<linearGradient id="paint4_linear" x1="108.915" y1="38.8988" x2="87.0897" y2="38.8988" gradientUnits="userSpaceOnUse">
<stop stop-color="#2196F3"/>
<stop offset="1" stop-color="#64B5F6"/>
</linearGradient>
<radialGradient id="paint5_radial" cx="0" cy="0" r="1" gradientUnits="userSpaceOnUse" gradientTransform="translate(23.707 23.5875) scale(21.3599)">
<stop offset="0.5" stop-color="#FDE030"/>
<stop offset="0.92" stop-color="#F7C02B"/>
<stop offset="1" stop-color="#F4A223"/>
</radialGradient>
<clipPath id="clip0">
<rect width="48" height="48" fill="white" transform="translate(60)"/>
</clipPath>
</defs>
</svg>