<?xml version="1.0" encoding="UTF-8" standalone="no"?>
<!DOCTYPE svg PUBLIC "-//W3C//DTD SVG 1.1//EN" "http://www.w3.org/Graphics/SVG/1.1/DTD/svg11.dtd">
<svg xmlns="http://www.w3.org/2000/svg" xmlns:xlink="http://www.w3.org/1999/xlink" version="1.1" width="1350" height="900" viewBox="0 0 1350 900" xml:space="preserve">
<desc>Created with Fabric.js 3.6.3</desc>
<defs>
</defs>
<g transform="matrix(1 0 0 1 675 450)">
<g style="">
		<g transform="matrix(1 0 0 1 0 0)">
<rect style="stroke: none; stroke-width: 1; stroke-dasharray: none; stroke-linecap: butt; stroke-dashoffset: 0; stroke-linejoin: miter; stroke-miterlimit: 4; fill: rgb(255,255,255); fill-rule: nonzero; opacity: 1;" x="-675" y="-450" rx="0" ry="0" width="1350" height="900"/>
</g>
		<g transform="matrix(1 0 0 1 306 -400)">
<rect style="stroke: none; stroke-width: 1; stroke-dasharray: none; stroke-linecap: butt; stroke-dashoffset: 0; stroke-linejoin: miter; stroke-miterlimit: 4; fill: rgb(0,0,0); fill-rule: nonzero; opacity: 1;" x="-369" y="-50" rx="0" ry="0" width="738" height="100"/>
</g>
		<g transform="matrix(1 0 0 1 306 -200)">
<rect style="stroke: none; stroke-width: 1; stroke-dasharray: none; stroke-linecap: butt; stroke-dashoffset: 0; stroke-linejoin: miter; stroke-miterlimit: 4; fill: rgb(0,0,0); fill-rule: nonzero; opacity: 1;" x="-369" y="-50" rx="0" ry="0" width="738" height="100"/>
</g>
		<g transform="matrix(1 0 0 1 0 0)">
<rect style="stroke: none; stroke-width: 1; stroke-dasharray: none; stroke-linecap: butt; stroke-dashoffset: 0; stroke-linejoin: miter; stroke-miterlimit: 4; fill: rgb(0,0,0); fill-rule: nonzero; opacity: 1;" x="-675" y="-50" rx="0" ry="0" width="1350" height="100"/>
</g>
		<g transform="matrix(1 0 0 1 0 200)">
<rect style="stroke: none; stroke-width: 1; stroke-dasharray: none; stroke-linecap: butt; stroke-dashoffset: 0; stroke-linejoin: miter; stroke-miterlimit: 4; fill: rgb(0,0,0); fill-rule: nonzero; opacity: 1;" x="-675" y="-50" rx="0" ry="0" width="1350" height="100"/>
</g>
		<g transform="matrix(1 0 0 1 0 400)">
<rect style="stroke: none; stroke-width: 1; stroke-dasharray: none; stroke-linecap: butt; stroke-dashoffset: 0; stroke-linejoin: miter; stroke-miterlimit: 4; fill: rgb(0,0,0); fill-rule: nonzero; opacity: 1;" x="-675" y="-50" rx="0" ry="0" width="1350" height="100"/>
</g>
		<g transform="matrix(2.53 0 0 2.53 -534.16 -300.87)">
<path style="stroke: none; stroke-width: 1; stroke-dasharray: none; stroke-linecap: butt; stroke-dashoffset: 0; stroke-linejoin: miter; stroke-miterlimit: 4; fill: rgb(0,0,0); fill-rule: evenodd; opacity: 1;" transform=" translate(676.37, -16.15)" d="m -677.03085 9.87064 c 4.17511 5.17924 -7.50003 7.24031 -1.20538 12.14267 c 2.68457 1.66458 8.9556 -1.93881 3.44649 -6.36743 c -0.71182 -0.37916 2.47786 -2.99735 -2.24111 -5.77524 z" stroke-linecap="round"/>
</g>
		<g transform="matrix(2.53 0 0 2.53 -509.22 -276.98)">
<path style="stroke: none; stroke-width: 1; stroke-dasharray: none; stroke-linecap: butt; stroke-dashoffset: 0; stroke-linejoin: miter; stroke-miterlimit: 4; fill: rgb(0,0,0); fill-rule: evenodd; opacity: 1;" transform=" translate(666.52, -25.57)" d="m -670.0662 22.14958 c -1.04447 0.09831 -2.05108 0.74291 -3.00147 2.38762 c -1.19195 2.75738 4.0496 7.53981 7.57704 1.66042 c 0.2496 -0.71754 3.75085 1.58046 5.68784 -3.23414 c -3.32064 3.48835 -6.71691 -0.67575 -9.80026 -0.81385 c -0.15082 -0.0068 -0.31395 -0.01409 -0.46315 -0.00005 z" stroke-linecap="round"/>
</g>
		<g transform="matrix(2.53 0 0 2.53 -558.74 -276.83)">
<path style="stroke: none; stroke-width: 1; stroke-dasharray: none; stroke-linecap: butt; stroke-dashoffset: 0; stroke-linejoin: miter; stroke-miterlimit: 4; fill: rgb(0,0,0); fill-rule: evenodd; opacity: 1;" transform=" translate(686.06, -25.63)" d="m -682.97894 22.19914 c -3.08341 0.13753 -6.48049 4.31788 -9.80042 0.82889 c 1.93603 4.81497 5.47482 2.51766 5.72427 3.23524 c 3.5263 5.88008 8.73172 1.09866 7.54031 -1.65895 c -1.0858 -1.87987 -2.25763 -2.45899 -3.46416 -2.40518 z" stroke-linecap="round"/>
</g>
		<g transform="matrix(2.53 0 0 2.53 -533.59 -229.74)">
<path style="stroke: none; stroke-width: 1; stroke-dasharray: none; stroke-linecap: butt; stroke-dashoffset: 0; stroke-linejoin: miter; stroke-miterlimit: 4; fill: rgb(0,0,0); fill-rule: evenodd; opacity: 1;" transform=" translate(676.13, -44.23)" d="m -676.03196 25.55305 c -2.71644 12.33688 -7.76823 21.07047 -13.26738 27.34961 c 2.28573 -0.62659 4.87078 -2.40334 7.35527 -3.96221 c -1.51963 3.23498 -3.05724 6.03621 -4.57682 8.89072 c 0.90717 -0.30742 3.79757 -3.19007 7.7076 -7.41702 c 0.61237 5.81162 1.4474 8.55797 2.68508 12.49868 c 0.98603 -3.9342 1.7009 -6.62089 2.48373 -12.5998 c 2.35674 2.67392 4.62843 5.36182 7.8173 7.65562 l -4.46391 -9.19642 c 2.31172 1.47797 4.88441 3.40979 7.33595 4.23459 c -5.81218 -6.59359 -10.73107 -15.11508 -13.07682 -27.45377 z" stroke-linecap="round"/>
</g>
		<g transform="matrix(2.53 0 0 2.53 -394.02 -276.83)">
<path style="stroke: none; stroke-width: 1; stroke-dasharray: none; stroke-linecap: butt; stroke-dashoffset: 0; stroke-linejoin: miter; stroke-miterlimit: 4; fill: rgb(0,0,0); fill-rule: evenodd; opacity: 1;" transform=" translate(619.54, -25.63)" d="m -616.4605 22.19914 c -3.08341 0.13753 -6.48049 4.31788 -9.80042 0.82889 c 1.93603 4.81497 5.47482 2.51766 5.72427 3.23524 c 3.5263 5.88008 8.73172 1.09866 7.54031 -1.65895 c -1.0858 -1.87987 -2.25763 -2.45899 -3.46416 -2.40518 z" stroke-linecap="round"/>
</g>
		<g transform="matrix(2.53 0 0 2.53 -369.44 -300.87)">
<path style="stroke: none; stroke-width: 1; stroke-dasharray: none; stroke-linecap: butt; stroke-dashoffset: 0; stroke-linejoin: miter; stroke-miterlimit: 4; fill: rgb(0,0,0); fill-rule: evenodd; opacity: 1;" transform=" translate(609.85, -16.15)" d="m -610.51241 9.87064 c 4.17511 5.17924 -7.50003 7.24031 -1.20538 12.14267 c 2.68457 1.66458 8.9556 -1.93881 3.44649 -6.36743 c -0.71182 -0.37916 2.47786 -2.99735 -2.24111 -5.77524 z" stroke-linecap="round"/>
</g>
		<g transform="matrix(2.53 0 0 2.53 -344.5 -276.98)">
<path style="stroke: none; stroke-width: 1; stroke-dasharray: none; stroke-linecap: butt; stroke-dashoffset: 0; stroke-linejoin: miter; stroke-miterlimit: 4; fill: rgb(0,0,0); fill-rule: evenodd; opacity: 1;" transform=" translate(600, -25.57)" d="m -603.54776 22.14958 c -1.04447 0.09831 -2.05108 0.74291 -3.00147 2.38762 c -1.19195 2.75738 4.0496 7.53981 7.57704 1.66042 c 0.2496 -0.71754 3.75085 1.58046 5.68784 -3.23414 c -3.32064 3.48835 -6.71691 -0.67575 -9.80026 -0.81385 c -0.15082 -0.0068 -0.31395 -0.01409 -0.46315 -0.00005 z" stroke-linecap="round"/>
</g>
		<g transform="matrix(2.53 0 0 2.53 -368.87 -229.74)">
<path style="stroke: none; stroke-width: 1; stroke-dasharray: none; stroke-linecap: butt; stroke-dashoffset: 0; stroke-linejoin: miter; stroke-miterlimit: 4; fill: rgb(0,0,0); fill-rule: evenodd; opacity: 1;" transform=" translate(609.61, -44.23)" d="m -609.51352 25.55305 c -2.71644 12.33688 -7.76823 21.07047 -13.26738 27.34961 c 2.28573 -0.62659 4.87078 -2.40334 7.35527 -3.96221 c -1.51963 3.23498 -3.05724 6.03621 -4.57682 8.89072 c 0.90717 -0.30742 3.79757 -3.19007 7.7076 -7.41702 c 0.61237 5.81162 1.4474 8.55797 2.68508 12.49868 c 0.98603 -3.9342 1.7009 -6.62089 2.48373 -12.5998 c 2.35674 2.67392 4.62843 5.36182 7.8173 7.65562 l -4.46391 -9.19642 c 2.31172 1.47797 4.88441 3.40979 7.33595 4.23459 c -5.81218 -6.59359 -10.73107 -15.11508 -13.07682 -27.45377 z" stroke-linecap="round"/>
</g>
		<g transform="matrix(2.53 0 0 2.53 -204.72 -300.87)">
<path style="stroke: none; stroke-width: 1; stroke-dasharray: none; stroke-linecap: butt; stroke-dashoffset: 0; stroke-linejoin: miter; stroke-miterlimit: 4; fill: rgb(0,0,0); fill-rule: evenodd; opacity: 1;" transform=" translate(549.11, -25.94)" d="m -549.76978 19.66383 c 4.17511 5.17924 -7.50003 7.24031 -1.20538 12.14267 c 2.68457 1.66458 8.9556 -1.93881 3.44649 -6.36743 c -0.71182 -0.37916 2.47786 -2.99735 -2.24111 -5.77524 z" stroke-linecap="round"/>
</g>
		<g transform="matrix(2.53 0 0 2.53 -179.78 -276.98)">
<path style="stroke: none; stroke-width: 1; stroke-dasharray: none; stroke-linecap: butt; stroke-dashoffset: 0; stroke-linejoin: miter; stroke-miterlimit: 4; fill: rgb(0,0,0); fill-rule: evenodd; opacity: 1;" transform=" translate(539.26, -35.36)" d="m -542.80513 31.94277 c -1.04447 0.09831 -2.05108 0.74291 -3.00147 2.38762 c -1.19195 2.75738 4.0496 7.53981 7.57704 1.66042 c 0.2496 -0.71754 3.75085 1.58046 5.68784 -3.23414 c -3.32064 3.48835 -6.71691 -0.67575 -9.80026 -0.81385 c -0.15082 -0.0068 -0.31395 -0.01409 -0.46315 -0.00005 z" stroke-linecap="round"/>
</g>
		<g transform="matrix(2.53 0 0 2.53 -229.3 -276.83)">
<path style="stroke: none; stroke-width: 1; stroke-dasharray: none; stroke-linecap: butt; stroke-dashoffset: 0; stroke-linejoin: miter; stroke-miterlimit: 4; fill: rgb(0,0,0); fill-rule: evenodd; opacity: 1;" transform=" translate(558.8, -35.42)" d="m -555.71787 31.99233 c -3.08341 0.13753 -6.48049 4.31788 -9.80042 0.82889 c 1.93603 4.81497 5.47482 2.51766 5.72427 3.23524 c 3.5263 5.88008 8.73172 1.09866 7.54031 -1.65895 c -1.0858 -1.87987 -2.25763 -2.45899 -3.46416 -2.40518 z" stroke-linecap="round"/>
</g>
		<g transform="matrix(2.53 0 0 2.53 -204.15 -229.74)">
<path style="stroke: none; stroke-width: 1; stroke-dasharray: none; stroke-linecap: butt; stroke-dashoffset: 0; stroke-linejoin: miter; stroke-miterlimit: 4; fill: rgb(0,0,0); fill-rule: evenodd; opacity: 1;" transform=" translate(548.87, -54.03)" d="m -548.77089 35.34624 c -2.71644 12.33688 -7.76823 21.07047 -13.26738 27.34961 c 2.28573 -0.62659 4.87078 -2.40334 7.35527 -3.96221 c -1.51963 3.23498 -3.05724 6.03621 -4.57682 8.89072 c 0.90717 -0.30742 3.79757 -3.19007 7.7076 -7.41702 c 0.61237 5.81162 1.4474 8.55797 2.68508 12.49868 c 0.98603 -3.9342 1.7009 -6.62089 2.48373 -12.5998 c 2.35674 2.67392 4.62843 5.36182 7.8173 7.65562 l -4.46391 -9.19642 c 2.31172 1.47797 4.88441 3.40979 7.33595 4.23459 c -5.81218 -6.59359 -10.73107 -15.11508 -13.07682 -27.45377 z" stroke-linecap="round"/>
</g>
		<g transform="matrix(2.53 0 0 2.53 -616.52 -416.48)">
<path style="stroke: none; stroke-width: 1; stroke-dasharray: none; stroke-linecap: butt; stroke-dashoffset: 0; stroke-linejoin: miter; stroke-miterlimit: 4; fill: rgb(0,0,0); fill-rule: evenodd; opacity: 1;" transform=" translate(676.37, -16.15)" d="m -677.03085 9.87064 c 4.17511 5.17924 -7.50003 7.24031 -1.20538 12.14267 c 2.68457 1.66458 8.9556 -1.93881 3.44649 -6.36743 c -0.71182 -0.37916 2.47786 -2.99735 -2.24111 -5.77524 z" stroke-linecap="round"/>
</g>
		<g transform="matrix(2.53 0 0 2.53 -591.58 -392.59)">
<path style="stroke: none; stroke-width: 1; stroke-dasharray: none; stroke-linecap: butt; stroke-dashoffset: 0; stroke-linejoin: miter; stroke-miterlimit: 4; fill: rgb(0,0,0); fill-rule: evenodd; opacity: 1;" transform=" translate(666.52, -25.57)" d="m -670.0662 22.14958 c -1.04447 0.09831 -2.05108 0.74291 -3.00147 2.38762 c -1.19195 2.75738 4.0496 7.53981 7.57704 1.66042 c 0.2496 -0.71754 3.75085 1.58046 5.68784 -3.23414 c -3.32064 3.48835 -6.71691 -0.67575 -9.80026 -0.81385 c -0.15082 -0.0068 -0.31395 -0.01409 -0.46315 -0.00005 z" stroke-linecap="round"/>
</g>
		<g transform="matrix(2.53 0 0 2.53 -641.1 -392.44)">
<path style="stroke: none; stroke-width: 1; stroke-dasharray: none; stroke-linecap: butt; stroke-dashoffset: 0; stroke-linejoin: miter; stroke-miterlimit: 4; fill: rgb(0,0,0); fill-rule: evenodd; opacity: 1;" transform=" translate(686.06, -25.63)" d="m -682.97894 22.19914 c -3.08341 0.13753 -6.48049 4.31788 -9.80042 0.82889 c 1.93603 4.81497 5.47482 2.51766 5.72427 3.23524 c 3.5263 5.88008 8.73172 1.09866 7.54031 -1.65895 c -1.0858 -1.87987 -2.25763 -2.45899 -3.46416 -2.40518 z" stroke-linecap="round"/>
</g>
		<g transform="matrix(2.53 0 0 2.53 -615.95 -345.35)">
<path style="stroke: none; stroke-width: 1; stroke-dasharray: none; stroke-linecap: butt; stroke-dashoffset: 0; stroke-linejoin: miter; stroke-miterlimit: 4; fill: rgb(0,0,0); fill-rule: evenodd; opacity: 1;" transform=" translate(676.13, -44.23)" d="m -676.03196 25.55305 c -2.71644 12.33688 -7.76823 21.07047 -13.26738 27.34961 c 2.28573 -0.62659 4.87078 -2.40334 7.35527 -3.96221 c -1.51963 3.23498 -3.05724 6.03621 -4.57682 8.89072 c 0.90717 -0.30742 3.79757 -3.19007 7.7076 -7.41702 c 0.61237 5.81162 1.4474 8.55797 2.68508 12.49868 c 0.98603 -3.9342 1.7009 -6.62089 2.48373 -12.5998 c 2.35674 2.67392 4.62843 5.36182 7.8173 7.65562 l -4.46391 -9.19642 c 2.31172 1.47797 4.88441 3.40979 7.33595 4.23459 c -5.81218 -6.59359 -10.73107 -15.11508 -13.07682 -27.45377 z" stroke-linecap="round"/>
</g>
		<g transform="matrix(2.53 0 0 2.53 -616.52 -185.26)">
<path style="stroke: none; stroke-width: 1; stroke-dasharray: none; stroke-linecap: butt; stroke-dashoffset: 0; stroke-linejoin: miter; stroke-miterlimit: 4; fill: rgb(0,0,0); fill-rule: evenodd; opacity: 1;" transform=" translate(676.37, -16.15)" d="m -677.03085 9.87064 c 4.17511 5.17924 -7.50003 7.24031 -1.20538 12.14267 c 2.68457 1.66458 8.9556 -1.93881 3.44649 -6.36743 c -0.71182 -0.37916 2.47786 -2.99735 -2.24111 -5.77524 z" stroke-linecap="round"/>
</g>
		<g transform="matrix(2.53 0 0 2.53 -591.58 -161.37)">
<path style="stroke: none; stroke-width: 1; stroke-dasharray: none; stroke-linecap: butt; stroke-dashoffset: 0; stroke-linejoin: miter; stroke-miterlimit: 4; fill: rgb(0,0,0); fill-rule: evenodd; opacity: 1;" transform=" translate(666.52, -25.57)" d="m -670.0662 22.14958 c -1.04447 0.09831 -2.05108 0.74291 -3.00147 2.38762 c -1.19195 2.75738 4.0496 7.53981 7.57704 1.66042 c 0.2496 -0.71754 3.75085 1.58046 5.68784 -3.23414 c -3.32064 3.48835 -6.71691 -0.67575 -9.80026 -0.81385 c -0.15082 -0.0068 -0.31395 -0.01409 -0.46315 -0.00005 z" stroke-linecap="round"/>
</g>
		<g transform="matrix(2.53 0 0 2.53 -641.1 -161.22)">
<path style="stroke: none; stroke-width: 1; stroke-dasharray: none; stroke-linecap: butt; stroke-dashoffset: 0; stroke-linejoin: miter; stroke-miterlimit: 4; fill: rgb(0,0,0); fill-rule: evenodd; opacity: 1;" transform=" translate(686.06, -25.63)" d="m -682.97894 22.19914 c -3.08341 0.13753 -6.48049 4.31788 -9.80042 0.82889 c 1.93603 4.81497 5.47482 2.51766 5.72427 3.23524 c 3.5263 5.88008 8.73172 1.09866 7.54031 -1.65895 c -1.0858 -1.87987 -2.25763 -2.45899 -3.46416 -2.40518 z" stroke-linecap="round"/>
</g>
		<g transform="matrix(2.53 0 0 2.53 -615.95 -114.13)">
<path style="stroke: none; stroke-width: 1; stroke-dasharray: none; stroke-linecap: butt; stroke-dashoffset: 0; stroke-linejoin: miter; stroke-miterlimit: 4; fill: rgb(0,0,0); fill-rule: evenodd; opacity: 1;" transform=" translate(676.13, -44.23)" d="m -676.03196 25.55305 c -2.71644 12.33688 -7.76823 21.07047 -13.26738 27.34961 c 2.28573 -0.62659 4.87078 -2.40334 7.35527 -3.96221 c -1.51963 3.23498 -3.05724 6.03621 -4.57682 8.89072 c 0.90717 -0.30742 3.79757 -3.19007 7.7076 -7.41702 c 0.61237 5.81162 1.4474 8.55797 2.68508 12.49868 c 0.98603 -3.9342 1.7009 -6.62089 2.48373 -12.5998 c 2.35674 2.67392 4.62843 5.36182 7.8173 7.65562 l -4.46391 -9.19642 c 2.31172 1.47797 4.88441 3.40979 7.33595 4.23459 c -5.81218 -6.59359 -10.73107 -15.11508 -13.07682 -27.45377 z" stroke-linecap="round"/>
</g>
		<g transform="matrix(2.53 0 0 2.53 -476.38 -392.44)">
<path style="stroke: none; stroke-width: 1; stroke-dasharray: none; stroke-linecap: butt; stroke-dashoffset: 0; stroke-linejoin: miter; stroke-miterlimit: 4; fill: rgb(0,0,0); fill-rule: evenodd; opacity: 1;" transform=" translate(619.54, -25.63)" d="m -616.4605 22.19914 c -3.08341 0.13753 -6.48049 4.31788 -9.80042 0.82889 c 1.93603 4.81497 5.47482 2.51766 5.72427 3.23524 c 3.5263 5.88008 8.73172 1.09866 7.54031 -1.65895 c -1.0858 -1.87987 -2.25763 -2.45899 -3.46416 -2.40518 z" stroke-linecap="round"/>
</g>
		<g transform="matrix(2.53 0 0 2.53 -451.8 -416.48)">
<path style="stroke: none; stroke-width: 1; stroke-dasharray: none; stroke-linecap: butt; stroke-dashoffset: 0; stroke-linejoin: miter; stroke-miterlimit: 4; fill: rgb(0,0,0); fill-rule: evenodd; opacity: 1;" transform=" translate(609.85, -16.15)" d="m -610.51241 9.87064 c 4.17511 5.17924 -7.50003 7.24031 -1.20538 12.14267 c 2.68457 1.66458 8.9556 -1.93881 3.44649 -6.36743 c -0.71182 -0.37916 2.47786 -2.99735 -2.24111 -5.77524 z" stroke-linecap="round"/>
</g>
		<g transform="matrix(2.53 0 0 2.53 -426.86 -392.59)">
<path style="stroke: none; stroke-width: 1; stroke-dasharray: none; stroke-linecap: butt; stroke-dashoffset: 0; stroke-linejoin: miter; stroke-miterlimit: 4; fill: rgb(0,0,0); fill-rule: evenodd; opacity: 1;" transform=" translate(600, -25.57)" d="m -603.54776 22.14958 c -1.04447 0.09831 -2.05108 0.74291 -3.00147 2.38762 c -1.19195 2.75738 4.0496 7.53981 7.57704 1.66042 c 0.2496 -0.71754 3.75085 1.58046 5.68784 -3.23414 c -3.32064 3.48835 -6.71691 -0.67575 -9.80026 -0.81385 c -0.15082 -0.0068 -0.31395 -0.01409 -0.46315 -0.00005 z" stroke-linecap="round"/>
</g>
		<g transform="matrix(2.53 0 0 2.53 -451.23 -345.35)">
<path style="stroke: none; stroke-width: 1; stroke-dasharray: none; stroke-linecap: butt; stroke-dashoffset: 0; stroke-linejoin: miter; stroke-miterlimit: 4; fill: rgb(0,0,0); fill-rule: evenodd; opacity: 1;" transform=" translate(609.61, -44.23)" d="m -609.51352 25.55305 c -2.71644 12.33688 -7.76823 21.07047 -13.26738 27.34961 c 2.28573 -0.62659 4.87078 -2.40334 7.35527 -3.96221 c -1.51963 3.23498 -3.05724 6.03621 -4.57682 8.89072 c 0.90717 -0.30742 3.79757 -3.19007 7.7076 -7.41702 c 0.61237 5.81162 1.4474 8.55797 2.68508 12.49868 c 0.98603 -3.9342 1.7009 -6.62089 2.48373 -12.5998 c 2.35674 2.67392 4.62843 5.36182 7.8173 7.65562 l -4.46391 -9.19642 c 2.31172 1.47797 4.88441 3.40979 7.33595 4.23459 c -5.81218 -6.59359 -10.73107 -15.11508 -13.07682 -27.45377 z" stroke-linecap="round"/>
</g>
		<g transform="matrix(2.53 0 0 2.53 -476.38 -161.22)">
<path style="stroke: none; stroke-width: 1; stroke-dasharray: none; stroke-linecap: butt; stroke-dashoffset: 0; stroke-linejoin: miter; stroke-miterlimit: 4; fill: rgb(0,0,0); fill-rule: evenodd; opacity: 1;" transform=" translate(619.54, -25.63)" d="m -616.4605 22.19914 c -3.08341 0.13753 -6.48049 4.31788 -9.80042 0.82889 c 1.93603 4.81497 5.47482 2.51766 5.72427 3.23524 c 3.5263 5.88008 8.73172 1.09866 7.54031 -1.65895 c -1.0858 -1.87987 -2.25763 -2.45899 -3.46416 -2.40518 z" stroke-linecap="round"/>
</g>
		<g transform="matrix(2.53 0 0 2.53 -451.8 -185.26)">
<path style="stroke: none; stroke-width: 1; stroke-dasharray: none; stroke-linecap: butt; stroke-dashoffset: 0; stroke-linejoin: miter; stroke-miterlimit: 4; fill: rgb(0,0,0); fill-rule: evenodd; opacity: 1;" transform=" translate(609.85, -16.15)" d="m -610.51241 9.87064 c 4.17511 5.17924 -7.50003 7.24031 -1.20538 12.14267 c 2.68457 1.66458 8.9556 -1.93881 3.44649 -6.36743 c -0.71182 -0.37916 2.47786 -2.99735 -2.24111 -5.77524 z" stroke-linecap="round"/>
</g>
		<g transform="matrix(2.53 0 0 2.53 -426.86 -161.37)">
<path style="stroke: none; stroke-width: 1; stroke-dasharray: none; stroke-linecap: butt; stroke-dashoffset: 0; stroke-linejoin: miter; stroke-miterlimit: 4; fill: rgb(0,0,0); fill-rule: evenodd; opacity: 1;" transform=" translate(600, -25.57)" d="m -603.54776 22.14958 c -1.04447 0.09831 -2.05108 0.74291 -3.00147 2.38762 c -1.19195 2.75738 4.0496 7.53981 7.57704 1.66042 c 0.2496 -0.71754 3.75085 1.58046 5.68784 -3.23414 c -3.32064 3.48835 -6.71691 -0.67575 -9.80026 -0.81385 c -0.15082 -0.0068 -0.31395 -0.01409 -0.46315 -0.00005 z" stroke-linecap="round"/>
</g>
		<g transform="matrix(2.53 0 0 2.53 -451.23 -114.13)">
<path style="stroke: none; stroke-width: 1; stroke-dasharray: none; stroke-linecap: butt; stroke-dashoffset: 0; stroke-linejoin: miter; stroke-miterlimit: 4; fill: rgb(0,0,0); fill-rule: evenodd; opacity: 1;" transform=" translate(609.61, -44.23)" d="m -609.51352 25.55305 c -2.71644 12.33688 -7.76823 21.07047 -13.26738 27.34961 c 2.28573 -0.62659 4.87078 -2.40334 7.35527 -3.96221 c -1.51963 3.23498 -3.05724 6.03621 -4.57682 8.89072 c 0.90717 -0.30742 3.79757 -3.19007 7.7076 -7.41702 c 0.61237 5.81162 1.4474 8.55797 2.68508 12.49868 c 0.98603 -3.9342 1.7009 -6.62089 2.48373 -12.5998 c 2.35674 2.67392 4.62843 5.36182 7.8173 7.65562 l -4.46391 -9.19642 c 2.31172 1.47797 4.88441 3.40979 7.33595 4.23459 c -5.81218 -6.59359 -10.73107 -15.11508 -13.07682 -27.45377 z" stroke-linecap="round"/>
</g>
		<g transform="matrix(2.53 0 0 2.53 -287.08 -416.48)">
<path style="stroke: none; stroke-width: 1; stroke-dasharray: none; stroke-linecap: butt; stroke-dashoffset: 0; stroke-linejoin: miter; stroke-miterlimit: 4; fill: rgb(0,0,0); fill-rule: evenodd; opacity: 1;" transform=" translate(549.11, -25.94)" d="m -549.76978 19.66383 c 4.17511 5.17924 -7.50003 7.24031 -1.20538 12.14267 c 2.68457 1.66458 8.9556 -1.93881 3.44649 -6.36743 c -0.71182 -0.37916 2.47786 -2.99735 -2.24111 -5.77524 z" stroke-linecap="round"/>
</g>
		<g transform="matrix(2.53 0 0 2.53 -262.14 -392.59)">
<path style="stroke: none; stroke-width: 1; stroke-dasharray: none; stroke-linecap: butt; stroke-dashoffset: 0; stroke-linejoin: miter; stroke-miterlimit: 4; fill: rgb(0,0,0); fill-rule: evenodd; opacity: 1;" transform=" translate(539.26, -35.36)" d="m -542.80513 31.94277 c -1.04447 0.09831 -2.05108 0.74291 -3.00147 2.38762 c -1.19195 2.75738 4.0496 7.53981 7.57704 1.66042 c 0.2496 -0.71754 3.75085 1.58046 5.68784 -3.23414 c -3.32064 3.48835 -6.71691 -0.67575 -9.80026 -0.81385 c -0.15082 -0.0068 -0.31395 -0.01409 -0.46315 -0.00005 z" stroke-linecap="round"/>
</g>
		<g transform="matrix(2.53 0 0 2.53 -311.66 -392.44)">
<path style="stroke: none; stroke-width: 1; stroke-dasharray: none; stroke-linecap: butt; stroke-dashoffset: 0; stroke-linejoin: miter; stroke-miterlimit: 4; fill: rgb(0,0,0); fill-rule: evenodd; opacity: 1;" transform=" translate(558.8, -35.42)" d="m -555.71787 31.99233 c -3.08341 0.13753 -6.48049 4.31788 -9.80042 0.82889 c 1.93603 4.81497 5.47482 2.51766 5.72427 3.23524 c 3.5263 5.88008 8.73172 1.09866 7.54031 -1.65895 c -1.0858 -1.87987 -2.25763 -2.45899 -3.46416 -2.40518 z" stroke-linecap="round"/>
</g>
		<g transform="matrix(2.53 0 0 2.53 -286.51 -345.35)">
<path style="stroke: none; stroke-width: 1; stroke-dasharray: none; stroke-linecap: butt; stroke-dashoffset: 0; stroke-linejoin: miter; stroke-miterlimit: 4; fill: rgb(0,0,0); fill-rule: evenodd; opacity: 1;" transform=" translate(548.87, -54.03)" d="m -548.77089 35.34624 c -2.71644 12.33688 -7.76823 21.07047 -13.26738 27.34961 c 2.28573 -0.62659 4.87078 -2.40334 7.35527 -3.96221 c -1.51963 3.23498 -3.05724 6.03621 -4.57682 8.89072 c 0.90717 -0.30742 3.79757 -3.19007 7.7076 -7.41702 c 0.61237 5.81162 1.4474 8.55797 2.68508 12.49868 c 0.98603 -3.9342 1.7009 -6.62089 2.48373 -12.5998 c 2.35674 2.67392 4.62843 5.36182 7.8173 7.65562 l -4.46391 -9.19642 c 2.31172 1.47797 4.88441 3.40979 7.33595 4.23459 c -5.81218 -6.59359 -10.73107 -15.11508 -13.07682 -27.45377 z" stroke-linecap="round"/>
</g>
		<g transform="matrix(2.53 0 0 2.53 -287.08 -185.26)">
<path style="stroke: none; stroke-width: 1; stroke-dasharray: none; stroke-linecap: butt; stroke-dashoffset: 0; stroke-linejoin: miter; stroke-miterlimit: 4; fill: rgb(0,0,0); fill-rule: evenodd; opacity: 1;" transform=" translate(549.11, -25.94)" d="m -549.76978 19.66383 c 4.17511 5.17924 -7.50003 7.24031 -1.20538 12.14267 c 2.68457 1.66458 8.9556 -1.93881 3.44649 -6.36743 c -0.71182 -0.37916 2.47786 -2.99735 -2.24111 -5.77524 z" stroke-linecap="round"/>
</g>
		<g transform="matrix(2.53 0 0 2.53 -262.14 -161.37)">
<path style="stroke: none; stroke-width: 1; stroke-dasharray: none; stroke-linecap: butt; stroke-dashoffset: 0; stroke-linejoin: miter; stroke-miterlimit: 4; fill: rgb(0,0,0); fill-rule: evenodd; opacity: 1;" transform=" translate(539.26, -35.36)" d="m -542.80513 31.94277 c -1.04447 0.09831 -2.05108 0.74291 -3.00147 2.38762 c -1.19195 2.75738 4.0496 7.53981 7.57704 1.66042 c 0.2496 -0.71754 3.75085 1.58046 5.68784 -3.23414 c -3.32064 3.48835 -6.71691 -0.67575 -9.80026 -0.81385 c -0.15082 -0.0068 -0.31395 -0.01409 -0.46315 -0.00005 z" stroke-linecap="round"/>
</g>
		<g transform="matrix(2.53 0 0 2.53 -311.66 -161.22)">
<path style="stroke: none; stroke-width: 1; stroke-dasharray: none; stroke-linecap: butt; stroke-dashoffset: 0; stroke-linejoin: miter; stroke-miterlimit: 4; fill: rgb(0,0,0); fill-rule: evenodd; opacity: 1;" transform=" translate(558.8, -35.42)" d="m -555.71787 31.99233 c -3.08341 0.13753 -6.48049 4.31788 -9.80042 0.82889 c 1.93603 4.81497 5.47482 2.51766 5.72427 3.23524 c 3.5263 5.88008 8.73172 1.09866 7.54031 -1.65895 c -1.0858 -1.87987 -2.25763 -2.45899 -3.46416 -2.40518 z" stroke-linecap="round"/>
</g>
		<g transform="matrix(2.53 0 0 2.53 -286.51 -114.13)">
<path style="stroke: none; stroke-width: 1; stroke-dasharray: none; stroke-linecap: butt; stroke-dashoffset: 0; stroke-linejoin: miter; stroke-miterlimit: 4; fill: rgb(0,0,0); fill-rule: evenodd; opacity: 1;" transform=" translate(548.87, -54.03)" d="m -548.77089 35.34624 c -2.71644 12.33688 -7.76823 21.07047 -13.26738 27.34961 c 2.28573 -0.62659 4.87078 -2.40334 7.35527 -3.96221 c -1.51963 3.23498 -3.05724 6.03621 -4.57682 8.89072 c 0.90717 -0.30742 3.79757 -3.19007 7.7076 -7.41702 c 0.61237 5.81162 1.4474 8.55797 2.68508 12.49868 c 0.98603 -3.9342 1.7009 -6.62089 2.48373 -12.5998 c 2.35674 2.67392 4.62843 5.36182 7.8173 7.65562 l -4.46391 -9.19642 c 2.31172 1.47797 4.88441 3.40979 7.33595 4.23459 c -5.81218 -6.59359 -10.73107 -15.11508 -13.07682 -27.45377 z" stroke-linecap="round"/>
</g>
		<g transform="matrix(2.53 0 0 2.53 -122.36 -416.48)">
<path style="stroke: none; stroke-width: 1; stroke-dasharray: none; stroke-linecap: butt; stroke-dashoffset: 0; stroke-linejoin: miter; stroke-miterlimit: 4; fill: rgb(0,0,0); fill-rule: evenodd; opacity: 1;" transform=" translate(482.59, -25.94)" d="m -483.25134 19.66383 c 4.17511 5.17924 -7.50003 7.24031 -1.20538 12.14267 c 2.68457 1.66458 8.9556 -1.93881 3.44649 -6.36743 c -0.71182 -0.37916 2.47786 -2.99735 -2.24111 -5.77524 z" stroke-linecap="round"/>
</g>
		<g transform="matrix(2.53 0 0 2.53 -97.42 -392.59)">
<path style="stroke: none; stroke-width: 1; stroke-dasharray: none; stroke-linecap: butt; stroke-dashoffset: 0; stroke-linejoin: miter; stroke-miterlimit: 4; fill: rgb(0,0,0); fill-rule: evenodd; opacity: 1;" transform=" translate(472.74, -35.36)" d="m -476.28669 31.94277 c -1.04447 0.09831 -2.05108 0.74291 -3.00147 2.38762 c -1.19195 2.75738 4.0496 7.53981 7.57704 1.66042 c 0.2496 -0.71754 3.75085 1.58046 5.68784 -3.23414 c -3.32064 3.48835 -6.71691 -0.67575 -9.80026 -0.81385 c -0.15082 -0.0068 -0.31395 -0.01409 -0.46315 -0.00005 z" stroke-linecap="round"/>
</g>
		<g transform="matrix(2.53 0 0 2.53 -146.94 -392.44)">
<path style="stroke: none; stroke-width: 1; stroke-dasharray: none; stroke-linecap: butt; stroke-dashoffset: 0; stroke-linejoin: miter; stroke-miterlimit: 4; fill: rgb(0,0,0); fill-rule: evenodd; opacity: 1;" transform=" translate(492.28, -35.42)" d="m -489.19943 31.99233 c -3.08341 0.13753 -6.48049 4.31788 -9.80042 0.82889 c 1.93603 4.81497 5.47482 2.51766 5.72427 3.23524 c 3.5263 5.88008 8.73172 1.09866 7.54031 -1.65895 c -1.0858 -1.87987 -2.25763 -2.45899 -3.46416 -2.40518 z" stroke-linecap="round"/>
</g>
		<g transform="matrix(2.53 0 0 2.53 -121.79 -345.35)">
<path style="stroke: none; stroke-width: 1; stroke-dasharray: none; stroke-linecap: butt; stroke-dashoffset: 0; stroke-linejoin: miter; stroke-miterlimit: 4; fill: rgb(0,0,0); fill-rule: evenodd; opacity: 1;" transform=" translate(482.35, -54.03)" d="m -482.25245 35.34624 c -2.71644 12.33688 -7.76823 21.07047 -13.26738 27.34961 c 2.28573 -0.62659 4.87078 -2.40334 7.35527 -3.96221 c -1.51963 3.23498 -3.05724 6.03621 -4.57682 8.89072 c 0.90717 -0.30742 3.79757 -3.19007 7.7076 -7.41702 c 0.61237 5.81162 1.4474 8.55797 2.68508 12.49868 c 0.98603 -3.9342 1.7009 -6.62089 2.48373 -12.5998 c 2.35674 2.67392 4.62843 5.36182 7.8173 7.65562 l -4.46391 -9.19642 c 2.31172 1.47797 4.88441 3.40979 7.33595 4.23459 c -5.81218 -6.59359 -10.73107 -15.11508 -13.07682 -27.45377 z" stroke-linecap="round"/>
</g>
		<g transform="matrix(2.53 0 0 2.53 -122.36 -185.26)">
<path style="stroke: none; stroke-width: 1; stroke-dasharray: none; stroke-linecap: butt; stroke-dashoffset: 0; stroke-linejoin: miter; stroke-miterlimit: 4; fill: rgb(0,0,0); fill-rule: evenodd; opacity: 1;" transform=" translate(482.59, -25.94)" d="m -483.25134 19.66383 c 4.17511 5.17924 -7.50003 7.24031 -1.20538 12.14267 c 2.68457 1.66458 8.9556 -1.93881 3.44649 -6.36743 c -0.71182 -0.37916 2.47786 -2.99735 -2.24111 -5.77524 z" stroke-linecap="round"/>
</g>
		<g transform="matrix(2.53 0 0 2.53 -97.42 -161.37)">
<path style="stroke: none; stroke-width: 1; stroke-dasharray: none; stroke-linecap: butt; stroke-dashoffset: 0; stroke-linejoin: miter; stroke-miterlimit: 4; fill: rgb(0,0,0); fill-rule: evenodd; opacity: 1;" transform=" translate(472.74, -35.36)" d="m -476.28669 31.94277 c -1.04447 0.09831 -2.05108 0.74291 -3.00147 2.38762 c -1.19195 2.75738 4.0496 7.53981 7.57704 1.66042 c 0.2496 -0.71754 3.75085 1.58046 5.68784 -3.23414 c -3.32064 3.48835 -6.71691 -0.67575 -9.80026 -0.81385 c -0.15082 -0.0068 -0.31395 -0.01409 -0.46315 -0.00005 z" stroke-linecap="round"/>
</g>
		<g transform="matrix(2.53 0 0 2.53 -146.94 -161.22)">
<path style="stroke: none; stroke-width: 1; stroke-dasharray: none; stroke-linecap: butt; stroke-dashoffset: 0; stroke-linejoin: miter; stroke-miterlimit: 4; fill: rgb(0,0,0); fill-rule: evenodd; opacity: 1;" transform=" translate(492.28, -35.42)" d="m -489.19943 31.99233 c -3.08341 0.13753 -6.48049 4.31788 -9.80042 0.82889 c 1.93603 4.81497 5.47482 2.51766 5.72427 3.23524 c 3.5263 5.88008 8.73172 1.09866 7.54031 -1.65895 c -1.0858 -1.87987 -2.25763 -2.45899 -3.46416 -2.40518 z" stroke-linecap="round"/>
</g>
		<g transform="matrix(2.53 0 0 2.53 -121.79 -114.13)">
<path style="stroke: none; stroke-width: 1; stroke-dasharray: none; stroke-linecap: butt; stroke-dashoffset: 0; stroke-linejoin: miter; stroke-miterlimit: 4; fill: rgb(0,0,0); fill-rule: evenodd; opacity: 1;" transform=" translate(482.35, -54.03)" d="m -482.25245 35.34624 c -2.71644 12.33688 -7.76823 21.07047 -13.26738 27.34961 c 2.28573 -0.62659 4.87078 -2.40334 7.35527 -3.96221 c -1.51963 3.23498 -3.05724 6.03621 -4.57682 8.89072 c 0.90717 -0.30742 3.79757 -3.19007 7.7076 -7.41702 c 0.61237 5.81162 1.4474 8.55797 2.68508 12.49868 c 0.98603 -3.9342 1.7009 -6.62089 2.48373 -12.5998 c 2.35674 2.67392 4.62843 5.36182 7.8173 7.65562 l -4.46391 -9.19642 c 2.31172 1.47797 4.88441 3.40979 7.33595 4.23459 c -5.81218 -6.59359 -10.73107 -15.11508 -13.07682 -27.45377 z" stroke-linecap="round"/>
</g>
</g>
</g>
</svg>