<svg xmlns="http://www.w3.org/2000/svg" width="900" height="600"><g fill-rule="evenodd"><path d="M0 0h900v600H0z" fill="#fff"/><path d="M0 0h900v200H0z" fill="#ed2024"/><path d="M0 400h900v200H0z" fill="#278e43"/></g><path d="M450 150l11.24 76.264 33.222-69.563-11.738 76.19 52.249-56.68-33.674 69.344 66.634-38.761-52.616 56.338 75.098-17.399-66.885 38.327 76.89 5.51-75.21 16.909 71.85 27.929-76.852-6.011 60.425 47.867-71.666-28.397 43.632 63.55-60.113-48.259 22.962 73.589-43.217-63.834.25 77.087L450 376.264 427.518 450l.251-77.087-43.217 63.834 22.962-73.589-60.113 48.26 43.632-63.551-71.666 28.397 60.425-47.867-76.852 6.011 71.85-27.93-75.21-16.908 76.89-5.51-66.885-38.327 75.098 17.399-52.616-56.338 66.634 38.76-33.674-69.343 52.249 56.68-11.738-76.19 33.221 69.563z" fill="#febd11" fill-rule="evenodd"/></svg>