<svg xmlns="http://www.w3.org/2000/svg" xmlns:xlink="http://www.w3.org/1999/xlink" width="168" height="48" fill="none" xmlns:v="https://vecta.io/nano"><path d="M122.794 46.226c.851.922 4.358-.686 7.125-1.976 2.074-.964 10.373-4.369 14.498-6.135 1.113-.476 2.733-1.099 3.9-2.633 1.035-1.365 3.78-7.162-1.748-13.035-5.61-5.963-11.389-4.316-13.549-2.786-1.271.9-2.306 2.929-2.771 3.96-1.965 4.357-4.766 12.341-5.906 15.48-.836 2.314-2.393 6.21-1.549 7.125z" fill="#ffc107"/><path d="M129.694 24.934c.052.652.184 1.714.634 3.757.307 1.403.81 2.873 1.218 3.844 1.227 2.921 2.948 4.099 4.692 5.044 2.962 1.605 4.976 1.905 4.976 1.905l-2.415.986s-1.463-.304-3.458-1.286c-1.901-.937-3.881-2.524-5.328-5.629-.627-1.346-.99-2.651-1.2-3.686-.259-1.282-.3-2.01-.3-2.01l1.181-2.925zm-2.966 7.605s.3 2.434 2.31 5.505c2.355 3.593 5.644 4.181 5.644 4.181l-2.186.9s-2.441-.746-4.763-3.915c-1.447-1.976-1.852-4.339-1.852-4.339l.847-2.332zm-2.081 5.767s.547 2.1 1.747 3.668c1.429 1.871 3.248 2.415 3.248 2.415l-1.677.742s-1.271-.266-2.662-2.029c-1.058-1.339-1.358-2.876-1.358-2.876l.702-1.92z" fill="#ff8f00"/><path opacity=".194" d="M123.735 43.639c-.075-.169-.075-.36.004-.525l9.551-19.807 1.572 5.906-10.05 14.516a.62.62 0 0 1-1.077-.09z" fill="#fffde7"/><path d="M135.619 31.196c4.463 5.22 9.544 4.567 11.235 3.247s3.034-5.872-1.41-11.006c-4.657-5.378-9.93-3.844-11.148-2.681s-2.772 5.651 1.323 10.44z" fill="url(#A)"/><path d="M150.945 33.345c-1.627-1.365-2.494-1.121-3.656-.638-1.5.623-3.859 1.084-7.061 0l.963-2.321c1.902.641 3.278.33 4.467-.371 1.53-.9 3.622-2.134 6.877.6 1.358 1.14 2.749 1.898 3.769 1.553.742-.248 1.136-1.354 1.335-2.235.019-.079.049-.304.071-.503.18-1.376.48-4.346 2.693-5.865 2.366-1.624 4.852-1.624 4.852-1.624l.45 4.47c-1.144-.169-1.939.064-2.61.435-2.527 1.406-.326 6.806-4.26 8.621-3.784 1.759-6.877-1.275-7.89-2.122z" fill="#03a9f4"/><path d="M137.025 27.645l-1.628-1.459c2.989-3.337 2.202-5.79 1.628-7.575l-.296-1.028c-.255-1.155-.308-2.16-.229-3.037-1.148-1.429-1.654-2.925-1.688-3.026-.697-2.111-.172-4.17 1.032-6.101 2.433-3.919 6.84-3.919 6.84-3.919l1.47 3.934c-1.118-.045-4.782.011-5.907 1.785-1.421 2.235-.487 3.615-.42 3.772a6.38 6.38 0 0 1 .799-.862c1.796-1.594 3.356-1.823 4.35-1.733 1.118.101 2.13.664 2.854 1.586.791 1.012 1.117 2.329.866 3.525-.244 1.166-1.02 2.153-2.186 2.779-2.036 1.095-3.731.945-4.868.566.008.026.012.056.019.082.041.188.124.45.221.754.664 2.055 1.898 5.318-2.857 9.956zm2.756-14.074c.218.158.446.289.683.383.787.315 1.646.21 2.621-.315.574-.307.641-.637.664-.746.067-.326-.045-.742-.289-1.054-.214-.274-.461-.416-.758-.446-.562-.049-1.323.307-2.085.986-.363.326-.641.727-.836 1.192z" fill="#f44336"/><path d="M143.539 28.256l-2.329-.064s1.106-6.247 4.687-7.297c.672-.195 1.407-.394 2.145-.503.439-.067 1.133-.169 1.474-.296.079-.589-.169-1.339-.446-2.19-.218-.66-.443-1.339-.563-2.081-.232-1.447.154-2.726 1.088-3.607 1.14-1.069 2.981-1.41 5.059-.937 1.185.27 2.058.851 2.827 1.361 1.099.731 1.74 1.103 3.083.199 1.623-1.095-.499-5.381-1.628-7.856l4.211-1.755c.567 1.238 3.3 7.605 1.497 11.239-.608 1.223-1.654 2.033-3.027 2.336-2.985.668-4.732-.495-6.007-1.342-.604-.401-1.133-.716-1.706-.881-3.987-1.136 1.578 4.729-1.028 7.365-1.564 1.579-5.385 1.995-5.632 2.055-2.46.593-3.705 4.256-3.705 4.256z" fill="#f48fb1"/><path d="M136.497 14.546c-.071.825-.105 1.316.109 2.389 1.031.758 3.277.758 3.277.758l-.221-.754c-.008-.026-.011-.056-.019-.082-2.284-1.14-3.146-2.31-3.146-2.31z" fill="#c92b27"/><path d="M131.825 18.24l-3.878-1.901 1.932-2.79 3.041 2.014-1.095 2.678z" fill="#ffc107"/><path d="M126.109 12.975c-1.98-.266-3.997-1.946-4.218-2.137l1.946-2.284c.589.499 1.837 1.335 2.674 1.447l-.402 2.974z" fill="#fb8c00"/><path d="M129.604 7.976l-2.85-.934c.326-.998.412-2.074.244-3.113l2.962-.476c.244 1.507.12 3.071-.356 4.523z" fill="#03a9f4"/><path d="M150.334 5.106l-2.931.641.847 3.869 2.93-.641-.846-3.869z" fill="#fb8c00"/><path d="M154.673 6.664l-2.063-2.179c1.08-1.024 1.328-2.362 1.328-2.377l2.962.484c-.037.236-.416 2.359-2.227 4.073z" fill="#ffc107"/><path d="M158.439 17.399l-2.62.819.895 2.863 2.62-.819-.895-2.863z" fill="#fb8c00"/><path d="M156.582 42.386l-2.981-.352c.127-1.061-.664-2.362-.881-2.651l2.4-1.8c.18.236 1.743 2.4 1.462 4.804z" fill="#f44336"/><path d="M165.139 38.584c-1.121-.169-2.269-.236-3.401-.195l-.101-3c1.316-.045 2.647.03 3.948.229l-.446 2.966z" fill="#fb8c00"/><path d="M163.213 40.579l-2.108 2.135 2.901 2.864 2.108-2.135-2.901-2.864z" fill="#f48fb1"/><path d="M157.08 26.227l-2.168-2.478-2.478 2.168 2.167 2.478 2.479-2.167z" fill="#f44336"/><g clip-path="url(#G)"><path d="M66.768 34.234l-.056-.041c-.12-.071-.191-.18-.218-.307s.007-.263.086-.39c.87-.413 7.275-3.469 8.858-4.905.409-.371.604-1.309.968-3.218l.27-1.391c.094-.454.341-1.294.6-2.183.356-1.211.724-2.46.847-3.199 1.028-6.214 1.882-13.916 1.89-13.991.139-1.339.431-2.7 1.519-2.7 1.282 0 2.179.806 2.179 1.965l.079 29.636c0 2.122-.806 2.43-1.74 2.786-.525.199-1.117.428-1.537.986-.859 1.148-1.778 2.67-2.666 4.144l-1.144 1.875-9.934-9.068h0z" fill="url(#B)"/><path d="M81.536 2.28c1.08 0 1.804.638 1.804 1.59l.079 29.632c0 1.864-.596 2.093-1.5 2.438-.57.218-1.219.465-1.703 1.11-.87 1.163-1.792 2.693-2.685 4.178l-.904 1.489-9.6-8.76a.9.9 0 0 0-.112-.086c-.034-.019-.041-.037-.041-.056-.004-.011-.004-.026 0-.041 1.237-.589 7.267-3.491 8.824-4.905.499-.454.694-1.376 1.084-3.424l.27-1.387c.09-.439.334-1.271.593-2.149.36-1.223.731-2.482.855-3.247 1.027-6.225 1.882-13.935 1.894-14.017.172-1.657.514-2.362 1.144-2.362h0zm0-.75c-1.489 0-1.763 1.826-1.89 3.034 0 0-.851 7.695-1.886 13.973-.21 1.271-1.226 4.29-1.444 5.37-.461 2.265-.698 4.016-1.125 4.406-1.639 1.489-8.854 4.883-8.854 4.883-.352.446-.274 1.035.18 1.313l10.264 9.368c1.313-2.062 2.741-4.65 4.031-6.375 1.031-1.38 3.353-.375 3.353-3.998L84.086 3.87c0-1.29-.968-2.34-2.55-2.34h0z" fill="#eda600"/><path d="M77.838 48.998l-18.934-.21.21-14.558 11.903-5.344c.559-.247 1.207.064 1.358.656.356 1.391 1.185 3.859 3 6.334a34.43 34.43 0 0 0 4.703 5.16 1.97 1.97 0 0 1 .454 2.344l-4.56 3.506 1.867 2.111h0z" fill="url(#C)"/><g stroke="#eda600" stroke-width=".75" stroke-miterlimit="10" stroke-linecap="round" stroke-linejoin="round"><path d="M79.725 6.75s.308-1.939 2.07-1.939 1.882 1.939 1.882 1.939m-4.511 4.875s.386-2.119 2.254-2.119 2.295 2.119 2.295 2.119"/></g><g opacity=".2"><path opacity=".2" d="M71.328 29.981a20.08 20.08 0 0 0 3.139 6.559c1.74 2.37 3.604 4.208 4.86 5.333a.86.86 0 0 1 .266.799l-4.282 3.124c-.251.184-.412.457-.454.765a1.12 1.12 0 0 0 .244.855l.352.431-15.401-.172.184-12.709 11.092-4.984h0zm.094-1.181c-.135 0-.27.026-.401.086L59.118 34.23l-.21 14.558 18.934.21-1.871-2.295 4.56-3.322c.394-.795.21-1.755-.454-2.344-1.147-1.027-2.989-2.824-4.703-5.16-1.815-2.471-2.644-4.939-3-6.334a.98.98 0 0 0-.953-.742h0z" fill="#424242"/></g><path d="M91.121 43.297l-1.144-1.875-2.666-4.144c-.42-.559-1.013-.788-1.537-.986-.934-.356-1.74-.664-1.74-2.786l.079-29.633c0-1.159.896-1.965 2.179-1.965 1.088 0 1.376 1.365 1.519 2.7.007.079.862 7.781 1.89 13.995.12.739.491 1.991.847 3.199.263.889.51 1.729.6 2.183l.274 1.395c.364 1.909.559 2.843.968 3.214 1.579 1.436 7.988 4.493 8.858 4.905.078.124.108.259.086.386s-.098.236-.218.307c-.018.011-.037.026-.056.041l-9.937 9.064h0z" fill="url(#D)"/><path d="M86.288 2.28c.63 0 .971.709 1.147 2.366.008.079.866 7.789 1.894 14.014.124.761.499 2.025.855 3.244.259.881.502 1.71.593 2.149l.27 1.388c.39 2.047.585 2.97 1.084 3.424 1.556 1.418 7.586 4.316 8.824 4.905.004.015.004.03 0 .041s-.011.034-.041.056a.66.66 0 0 0-.113.086l-9.6 8.76-.904-1.489c-.892-1.481-1.819-3.015-2.685-4.177-.484-.645-1.133-.893-1.703-1.11-.904-.345-1.5-.574-1.5-2.434l.079-29.636c-.004-.949.724-1.586 1.8-1.586h0zm0-.75c-1.583 0-2.554 1.05-2.554 2.34l-.079 29.632c0 3.623 2.321 2.617 3.353 3.998 1.29 1.725 2.719 4.313 4.031 6.375l10.264-9.364c.454-.277.536-.866.18-1.312 0 0-7.215-3.394-8.854-4.882-.428-.39-.664-2.141-1.125-4.406-.218-1.08-1.234-4.099-1.444-5.37-1.035-6.277-1.886-13.972-1.886-13.972-.12-1.211-.398-3.037-1.886-3.037h0z" fill="#eda600"/><path d="M89.981 48.998l18.934-.21-.21-14.558-11.903-5.344c-.559-.247-1.207.064-1.358.656-.356 1.391-1.185 3.859-3 6.334a34.43 34.43 0 0 1-4.703 5.16 1.97 1.97 0 0 0-.454 2.344l4.56 3.506-1.868 2.111h0z" fill="url(#E)"/><g stroke="#eda600" stroke-width=".75" stroke-miterlimit="10" stroke-linecap="round" stroke-linejoin="round"><path d="M88.099 6.75s-.308-1.939-2.07-1.939-1.882 1.939-1.882 1.939m4.51 4.875s-.386-2.119-2.254-2.119-2.295 2.119-2.295 2.119"/></g><g opacity=".2"><path opacity=".2" d="M96.495 29.981l11.096 4.98.184 12.709-15.401.172.352-.431a1.12 1.12 0 0 0 .244-.855c-.041-.307-.203-.581-.454-.765l-4.282-3.124a.86.86 0 0 1 .266-.799c1.256-1.125 3.12-2.962 4.86-5.333 1.879-2.565 2.76-5.149 3.135-6.555h0zm-.094-1.181c-.435 0-.84.289-.956.742-.356 1.391-1.185 3.859-3 6.334a34.43 34.43 0 0 1-4.703 5.16 1.97 1.97 0 0 0-.454 2.344l4.56 3.322-1.871 2.295 18.934-.21-.21-14.558-11.899-5.344c-.131-.06-.266-.086-.401-.086h0z" fill="#424242"/></g></g><path d="M23.707 44.55c-10.462 0-21.75-6.562-21.75-20.962S13.245 2.625 23.707 2.625c5.813 0 11.175 1.912 15.15 5.4 4.313 3.825 6.6 9.225 6.6 15.562s-2.288 11.7-6.6 15.525c-3.983 3.488-9.375 5.438-15.15 5.438z" fill="url(#F)"/><path d="M16.5 15.353c-1.571 0-3 1.328-3 3.533s1.429 3.529 3 3.529 3-1.327 3-3.529-1.41-3.533-3-3.533z" fill="#422b0d"/><path d="M16.369 16.826a1.08 1.08 0 0 0-1.432.503c-.199.416-.109.915.225 1.237a1.08 1.08 0 0 0 1.433-.502c.199-.416.109-.915-.225-1.238z" fill="#896024"/><path d="M30.899 15.353c-1.571 0-3 1.328-3 3.533s1.429 3.529 3 3.529 3-1.327 3-3.529-1.429-3.533-3-3.533z" fill="#422b0d"/><path d="M30.75 16.826a1.08 1.08 0 0 0-1.433.503c-.199.416-.109.915.225 1.237a1.08 1.08 0 0 0 1.433-.502c.199-.416.109-.915-.225-1.238z" fill="#896024"/><path d="M41.809 11.126c1.999 3.225 3.041 7.065 3.041 11.336 0 6.338-2.288 11.7-6.6 15.525-3.975 3.488-9.375 5.438-15.15 5.438-6.772 0-13.875-2.756-18.067-8.602 4.035 6.623 11.625 9.728 18.817 9.728 5.775 0 11.175-1.95 15.15-5.437 4.313-3.825 6.6-9.187 6.6-15.525 0-4.777-1.301-9.022-3.791-12.461z" fill="#eb8f00"/><path d="M38.276 26.858a2.18 2.18 0 0 0-2.678-.983c-3.847 1.121-7.837 1.68-11.846 1.661-4.009.019-7.999-.54-11.846-1.661-1.009-.383-2.149.03-2.674.975-.51.941-.143 2.032.289 2.974 2.408 5.288 7.714 8.453 14.201 8.471h.06c6.488 0 11.794-3.184 14.205-8.471.428-.949.799-2.025.289-2.966z" fill="#422b0d"/><path d="M29.756 36.802l-.424-.375a8.15 8.15 0 0 0-5.55-2.029c-2.1-.034-4.144.664-5.782 1.976-.143.116-.293.229-.431.375s-.214.251-.304.375a17.55 17.55 0 0 0 6.476 1.208h.06a17.67 17.67 0 0 0 6.214-1.125 2.85 2.85 0 0 0-.259-.405z" fill="#ed7770"/><path d="M35.599 25.875c-3.847 1.121-7.837 1.68-11.846 1.661-4.009.019-7.999-.54-11.846-1.661-1.009-.383-2.149.03-2.674.975a1.96 1.96 0 0 0-.173.446 5.05 5.05 0 0 0 .435.195c4.515 2.261 9.506 3.409 14.554 3.349a31.75 31.75 0 0 0 13.999-3.075c.176-.075.322-.146.454-.214-.03-.244-.109-.484-.225-.701-.525-.945-1.665-1.361-2.678-.975z" fill="#fff"/><path d="M38.291 26.861c-.532-.949-1.676-1.369-2.696-.986-3.847 1.121-7.837 1.68-11.842 1.661-4.009.019-7.999-.54-11.846-1.661-1.009-.383-2.149.03-2.674.975-.51.941-.143 2.032.289 2.974.191.424.405.84.641 1.241 0 0-.787-2.918-.105-3.765a1.33 1.33 0 0 1 1.05-.608c.176 0 .349.03.518.082a42.47 42.47 0 0 0 12.06 1.725h.131a42.47 42.47 0 0 0 12.06-1.725c.169-.052.341-.082.517-.082a1.34 1.34 0 0 1 1.054.608c.694.848-.105 3.776-.105 3.776a14.5 14.5 0 0 0 .66-1.241c.428-.941.799-2.029.289-2.974z" fill="#eb8f00"/><defs><linearGradient id="A" x1="147.895" y1="23.19" x2="136.732" y2="29.887" xlink:href="#H"><stop offset=".024" stop-color="#8f4700"/><stop offset="1" stop-color="#703e2d"/></linearGradient><radialGradient id="B" cx="0" cy="0" r="1" gradientTransform="translate(79.3273 14.9794) scale(16.2763 24.2983)" xlink:href="#H"><stop offset=".353" stop-color="#ffca28"/><stop offset=".872" stop-color="#ffb300"/></radialGradient><linearGradient id="C" x1="58.907" y1="38.899" x2="80.734" y2="38.899" xlink:href="#H"><stop stop-color="#2196f3"/><stop offset="1" stop-color="#64b5f6"/></linearGradient><radialGradient id="D" cx="0" cy="0" r="1" gradientTransform="translate(88.4879 14.9794) rotate(180) scale(16.2763 24.2983)" xlink:href="#H"><stop offset=".353" stop-color="#ffca28"/><stop offset=".872" stop-color="#ffb300"/></radialGradient><linearGradient id="E" x1="108.915" y1="38.899" x2="87.09" y2="38.899" xlink:href="#H"><stop stop-color="#2196f3"/><stop offset="1" stop-color="#64b5f6"/></linearGradient><radialGradient id="F" cx="0" cy="0" r="1" gradientTransform="translate(23.707 23.5875) scale(21.3599)" xlink:href="#H"><stop offset=".5" stop-color="#fde030"/><stop offset=".92" stop-color="#f7c02b"/><stop offset="1" stop-color="#f4a223"/></radialGradient><clipPath id="G"><path fill="#fff" transform="translate(60)" d="M0 0h48v48H0z"/></clipPath><linearGradient id="H" gradientUnits="userSpaceOnUse"/></defs></svg>