<svg xmlns="http://www.w3.org/2000/svg" width="60" viewBox="0 0 60 30" height="30" version="1.0"><defs><clipPath id="a"><path d="M 5.707031 8.542969 L 17.320312 8.542969 L 17.320312 20.875 L 5.707031 20.875 Z M 5.707031 8.542969"/></clipPath></defs><g fill="#FFF"><g><g><path d="M 4.300781 -6.253906 C 4.300781 -7.148438 3.8125 -7.625 2.925781 -7.625 L 1.859375 -7.625 C 0.960938 -7.625 0.476562 -7.148438 0.476562 -6.253906 L 0.476562 -1.371094 C 0.476562 -0.476562 0.960938 0 1.859375 0 L 2.925781 0 C 3.8125 0 4.300781 -0.476562 4.300781 -1.371094 L 4.300781 -2.402344 C 4.300781 -2.496094 4.242188 -2.554688 4.148438 -2.554688 L 3.195312 -2.554688 C 3.089844 -2.554688 3.039062 -2.496094 3.039062 -2.402344 L 3.039062 -1.640625 C 3.039062 -1.382812 2.90625 -1.257812 2.660156 -1.257812 L 2.164062 -1.257812 C 1.917969 -1.257812 1.78125 -1.382812 1.78125 -1.640625 L 1.78125 -5.988281 C 1.78125 -6.234375 1.90625 -6.367188 2.164062 -6.367188 L 2.660156 -6.367188 C 2.90625 -6.367188 3.039062 -6.234375 3.039062 -5.988281 L 3.039062 -5.222656 C 3.039062 -5.128906 3.089844 -5.070312 3.195312 -5.070312 L 4.148438 -5.070312 C 4.242188 -5.070312 4.300781 -5.128906 4.300781 -5.222656 Z M 4.300781 -6.253906" transform="translate(19.758 17.776)"/></g></g></g><g fill="#FFF"><g><g><path d="M 2.992188 -4.441406 L 1.773438 -4.441406 L 1.773438 -7.472656 C 1.773438 -7.570312 1.714844 -7.625 1.621094 -7.625 L 0.640625 -7.625 C 0.523438 -7.625 0.476562 -7.570312 0.476562 -7.472656 L 0.476562 -0.152344 C 0.476562 -0.0585938 0.523438 0 0.640625 0 L 1.621094 0 C 1.714844 0 1.773438 -0.0585938 1.773438 -0.152344 L 1.773438 -3.183594 L 2.992188 -3.183594 L 2.992188 -0.152344 C 2.992188 -0.0585938 3.050781 0 3.144531 0 L 4.128906 0 C 4.242188 0 4.289062 -0.0585938 4.289062 -0.152344 L 4.289062 -7.472656 C 4.289062 -7.570312 4.242188 -7.625 4.128906 -7.625 L 3.144531 -7.625 C 3.050781 -7.625 2.992188 -7.570312 2.992188 -7.472656 Z M 2.992188 -4.441406" transform="translate(24.534 17.776)"/></g></g></g><g fill="#FFF"><g><g><path d="M 5.070312 0 C 5.1875 0 5.222656 -0.0585938 5.203125 -0.160156 L 3.621094 -7.492188 C 3.601562 -7.585938 3.546875 -7.625 3.460938 -7.625 L 2.136719 -7.625 C 2.050781 -7.625 1.992188 -7.585938 1.972656 -7.492188 L 0.390625 -0.160156 C 0.363281 -0.0585938 0.410156 0 0.515625 0 L 1.535156 0 C 1.621094 0 1.667969 -0.046875 1.6875 -0.132812 L 1.945312 -1.523438 L 3.640625 -1.523438 L 3.910156 -0.132812 C 3.925781 -0.046875 3.976562 0 4.0625 0 Z M 3.402344 -2.632812 L 2.183594 -2.632812 L 2.792969 -5.957031 Z M 3.402344 -2.632812" transform="translate(29.3 17.776)"/></g></g></g><g fill="#FFF"><g><g><path d="M 0.4375 -7.625 C 0.34375 -7.625 0.285156 -7.570312 0.285156 -7.472656 L 0.285156 -6.519531 C 0.285156 -6.425781 0.34375 -6.367188 0.4375 -6.367188 L 1.542969 -6.367188 L 1.542969 -0.152344 C 1.542969 -0.046875 1.601562 0 1.695312 0 L 2.6875 0 C 2.792969 0 2.839844 -0.046875 2.839844 -0.152344 L 2.839844 -6.367188 L 3.945312 -6.367188 C 4.050781 -6.367188 4.097656 -6.425781 4.097656 -6.519531 L 4.097656 -7.472656 C 4.097656 -7.570312 4.050781 -7.625 3.945312 -7.625 Z M 0.4375 -7.625" transform="translate(34.886 17.776)"/></g></g></g><g fill="#FFF"><g><g><path d="M 3.402344 -7.625 C 3.296875 -7.625 3.25 -7.570312 3.25 -7.472656 L 3.25 -3.449219 L 3.195312 -3.449219 L 1.746094 -7.503906 C 1.714844 -7.585938 1.660156 -7.625 1.574219 -7.625 L 0.628906 -7.625 C 0.535156 -7.625 0.476562 -7.570312 0.476562 -7.472656 L 0.476562 -0.152344 C 0.476562 -0.0585938 0.535156 0 0.628906 0 L 1.621094 0 C 1.726562 0 1.773438 -0.0585938 1.773438 -0.152344 L 1.773438 -4.195312 L 1.820312 -4.195312 L 3.277344 -0.125 C 3.308594 -0.0390625 3.363281 0 3.449219 0 L 4.394531 0 C 4.488281 0 4.546875 -0.0585938 4.546875 -0.152344 L 4.546875 -7.472656 C 4.546875 -7.570312 4.488281 -7.625 4.394531 -7.625 Z M 3.402344 -7.625" transform="translate(39.271 17.776)"/></g></g></g><g fill="#FFF"><g><g><path d="M 4.28125 -7.472656 C 4.28125 -7.570312 4.242188 -7.625 4.128906 -7.625 L 0.621094 -7.625 C 0.535156 -7.625 0.476562 -7.570312 0.476562 -7.472656 L 0.476562 -0.152344 C 0.476562 -0.0585938 0.535156 0 0.621094 0 L 4.128906 0 C 4.242188 0 4.28125 -0.0585938 4.28125 -0.152344 L 4.28125 -1.105469 C 4.28125 -1.210938 4.242188 -1.257812 4.128906 -1.257812 L 1.746094 -1.257812 L 1.746094 -3.183594 L 3.566406 -3.183594 C 3.660156 -3.183594 3.71875 -3.242188 3.71875 -3.347656 L 3.71875 -4.289062 C 3.71875 -4.394531 3.660156 -4.453125 3.566406 -4.453125 L 1.746094 -4.453125 L 1.746094 -6.359375 L 4.128906 -6.359375 C 4.242188 -6.359375 4.28125 -6.425781 4.28125 -6.519531 Z M 4.28125 -7.472656" transform="translate(44.295 17.776)"/></g></g></g><g fill="#FFF"><g><g><path d="M 0.4375 -7.625 C 0.34375 -7.625 0.285156 -7.570312 0.285156 -7.472656 L 0.285156 -6.519531 C 0.285156 -6.425781 0.34375 -6.367188 0.4375 -6.367188 L 1.542969 -6.367188 L 1.542969 -0.152344 C 1.542969 -0.046875 1.601562 0 1.695312 0 L 2.6875 0 C 2.792969 0 2.839844 -0.046875 2.839844 -0.152344 L 2.839844 -6.367188 L 3.945312 -6.367188 C 4.050781 -6.367188 4.097656 -6.425781 4.097656 -6.519531 L 4.097656 -7.472656 C 4.097656 -7.570312 4.050781 -7.625 3.945312 -7.625 Z M 0.4375 -7.625" transform="translate(49.052 17.776)"/></g></g></g><path fill="#004AAD" d="M 10.507812 7.878906 C 10.070312 7.878906 9.640625 7.921875 9.210938 8.007812 C 8.785156 8.09375 8.371094 8.21875 7.96875 8.386719 C 7.566406 8.550781 7.183594 8.757812 6.820312 9 C 6.457031 9.242188 6.121094 9.515625 5.816406 9.824219 C 5.507812 10.132812 5.230469 10.46875 4.988281 10.828125 C 4.746094 11.191406 4.542969 11.574219 4.375 11.976562 C 4.210938 12.378906 4.082031 12.792969 4 13.222656 C 3.914062 13.648438 3.871094 14.082031 3.871094 14.515625 C 3.871094 14.953125 3.914062 15.382812 4 15.8125 C 4.082031 16.238281 4.210938 16.652344 4.375 17.054688 C 4.542969 17.457031 4.746094 17.839844 4.988281 18.203125 C 5.230469 18.566406 5.507812 18.902344 5.816406 19.207031 C 6.121094 19.515625 6.457031 19.792969 6.820312 20.035156 C 7.183594 20.277344 7.566406 20.480469 7.96875 20.648438 C 8.371094 20.8125 8.785156 20.941406 9.210938 21.023438 C 9.640625 21.109375 10.070312 21.152344 10.507812 21.152344 C 10.941406 21.152344 11.375 21.109375 11.800781 21.023438 C 12.230469 20.941406 12.644531 20.8125 13.046875 20.648438 C 13.449219 20.480469 13.832031 20.277344 14.195312 20.035156 C 14.554688 19.792969 14.890625 19.515625 15.199219 19.207031 C 15.507812 18.902344 15.78125 18.566406 16.023438 18.203125 C 16.265625 17.839844 16.472656 17.457031 16.636719 17.054688 C 16.804688 16.652344 16.929688 16.238281 17.015625 15.8125 C 17.101562 15.382812 17.144531 14.953125 17.144531 14.515625 C 17.144531 14.082031 17.101562 13.648438 17.015625 13.222656 C 16.929688 12.792969 16.804688 12.378906 16.636719 11.976562 C 16.472656 11.574219 16.265625 11.191406 16.023438 10.828125 C 15.78125 10.46875 15.507812 10.132812 15.199219 9.824219 C 14.890625 9.515625 14.554688 9.242188 14.195312 9 C 13.832031 8.757812 13.449219 8.550781 13.046875 8.386719 C 12.644531 8.21875 12.230469 8.09375 11.800781 8.007812 C 11.375 7.921875 10.941406 7.878906 10.507812 7.878906 Z M 10.507812 7.878906"/><g clip-path="url(#a)"><path fill="#FFF" d="M 17.277344 12.675781 C 17.175781 12.390625 16.894531 12.144531 16.585938 12.144531 L 13.683594 12.144531 L 16.15625 9.84375 C 16.371094 9.640625 16.4375 9.296875 16.324219 9.027344 C 16.210938 8.757812 15.945312 8.542969 15.644531 8.542969 L 10.632812 8.542969 C 10.402344 8.542969 10.183594 8.710938 10.046875 8.890625 L 5.855469 14.300781 C 5.6875 14.515625 5.660156 14.789062 5.78125 15.035156 C 5.90625 15.277344 6.160156 15.414062 6.441406 15.414062 L 9.269531 15.414062 C 9.28125 15.414062 9.289062 15.480469 9.300781 15.496094 L 6.835938 19.785156 C 6.660156 20.085938 6.730469 20.46875 7 20.691406 C 7.136719 20.804688 7.304688 20.867188 7.472656 20.867188 C 7.636719 20.867188 7.800781 20.816406 7.933594 20.710938 L 17.046875 13.5 C 17.289062 13.308594 17.382812 12.964844 17.277344 12.675781 Z M 17.277344 12.675781"/></g></svg>