<svg xmlns="http://www.w3.org/2000/svg" width="112.5" viewBox="0 0 112.5 112.5" height="112.5" version="1.0"><defs><clipPath id="a"><path d="M 18.765625 47.03125 L 36.765625 47.03125 L 36.765625 66.523438 L 18.765625 66.523438 Z M 18.765625 47.03125"/></clipPath></defs><g fill="#FFF"><g><g><path d="M 6.632812 -9.648438 C 6.632812 -11.03125 5.882812 -11.765625 4.515625 -11.765625 L 2.867188 -11.765625 C 1.484375 -11.765625 0.734375 -11.03125 0.734375 -9.648438 L 0.734375 -2.117188 C 0.734375 -0.734375 1.484375 0 2.867188 0 L 4.515625 0 C 5.882812 0 6.632812 -0.734375 6.632812 -2.117188 L 6.632812 -3.707031 C 6.632812 -3.855469 6.546875 -3.941406 6.398438 -3.941406 L 4.925781 -3.941406 C 4.765625 -3.941406 4.691406 -3.855469 4.691406 -3.707031 L 4.691406 -2.53125 C 4.691406 -2.132812 4.484375 -1.941406 4.105469 -1.941406 L 3.339844 -1.941406 C 2.957031 -1.941406 2.75 -2.132812 2.75 -2.53125 L 2.75 -9.238281 C 2.75 -9.621094 2.941406 -9.824219 3.339844 -9.824219 L 4.105469 -9.824219 C 4.484375 -9.824219 4.691406 -9.621094 4.691406 -9.238281 L 4.691406 -8.0625 C 4.691406 -7.914062 4.765625 -7.824219 4.925781 -7.824219 L 6.398438 -7.824219 C 6.546875 -7.824219 6.632812 -7.914062 6.632812 -8.0625 Z M 6.632812 -9.648438" transform="translate(40.447 61.28)"/></g></g></g><g fill="#FFF"><g><g><path d="M 4.617188 -6.855469 L 2.734375 -6.855469 L 2.734375 -11.53125 C 2.734375 -11.679688 2.648438 -11.765625 2.5 -11.765625 L 0.984375 -11.765625 C 0.808594 -11.765625 0.734375 -11.679688 0.734375 -11.53125 L 0.734375 -0.234375 C 0.734375 -0.0898438 0.808594 0 0.984375 0 L 2.5 0 C 2.648438 0 2.734375 -0.0898438 2.734375 -0.234375 L 2.734375 -4.914062 L 4.617188 -4.914062 L 4.617188 -0.234375 C 4.617188 -0.0898438 4.707031 0 4.855469 0 L 6.367188 0 C 6.546875 0 6.617188 -0.0898438 6.617188 -0.234375 L 6.617188 -11.53125 C 6.617188 -11.679688 6.546875 -11.765625 6.367188 -11.765625 L 4.855469 -11.765625 C 4.707031 -11.765625 4.617188 -11.679688 4.617188 -11.53125 Z M 4.617188 -6.855469" transform="translate(47.816 61.28)"/></g></g></g><g fill="#FFF"><g><g><path d="M 7.824219 0 C 8 0 8.0625 -0.0898438 8.03125 -0.25 L 5.589844 -11.5625 C 5.558594 -11.707031 5.472656 -11.765625 5.339844 -11.765625 L 3.292969 -11.765625 C 3.164062 -11.765625 3.074219 -11.707031 3.042969 -11.5625 L 0.601562 -0.25 C 0.558594 -0.0898438 0.632812 0 0.792969 0 L 2.367188 0 C 2.5 0 2.574219 -0.0742188 2.601562 -0.207031 L 3 -2.351562 L 5.617188 -2.351562 L 6.03125 -0.207031 C 6.058594 -0.0742188 6.132812 0 6.265625 0 Z M 5.25 -4.058594 L 3.367188 -4.058594 L 4.308594 -9.191406 Z M 5.25 -4.058594" transform="translate(55.17 61.28)"/></g></g></g><g fill="#FFF"><g><g><path d="M 0.675781 -11.765625 C 0.53125 -11.765625 0.441406 -11.679688 0.441406 -11.53125 L 0.441406 -10.0625 C 0.441406 -9.914062 0.53125 -9.824219 0.675781 -9.824219 L 2.382812 -9.824219 L 2.382812 -0.234375 C 2.382812 -0.0742188 2.472656 0 2.617188 0 L 4.148438 0 C 4.308594 0 4.382812 -0.0742188 4.382812 -0.234375 L 4.382812 -9.824219 L 6.089844 -9.824219 C 6.25 -9.824219 6.324219 -9.914062 6.324219 -10.0625 L 6.324219 -11.53125 C 6.324219 -11.679688 6.25 -11.765625 6.089844 -11.765625 Z M 0.675781 -11.765625" transform="translate(63.79 61.28)"/></g></g></g><g fill="#FFF"><g><g><path d="M 5.25 -11.765625 C 5.089844 -11.765625 5.015625 -11.679688 5.015625 -11.53125 L 5.015625 -5.324219 L 4.925781 -5.324219 L 2.691406 -11.574219 C 2.648438 -11.707031 2.558594 -11.765625 2.425781 -11.765625 L 0.972656 -11.765625 C 0.824219 -11.765625 0.734375 -11.679688 0.734375 -11.53125 L 0.734375 -0.234375 C 0.734375 -0.0898438 0.824219 0 0.972656 0 L 2.5 0 C 2.664062 0 2.734375 -0.0898438 2.734375 -0.234375 L 2.734375 -6.472656 L 2.808594 -6.472656 L 5.058594 -0.191406 C 5.105469 -0.0585938 5.191406 0 5.324219 0 L 6.78125 0 C 6.929688 0 7.015625 -0.0898438 7.015625 -0.234375 L 7.015625 -11.53125 C 7.015625 -11.679688 6.929688 -11.765625 6.78125 -11.765625 Z M 5.25 -11.765625" transform="translate(70.556 61.28)"/></g></g></g><g fill="#FFF"><g><g><path d="M 6.605469 -11.53125 C 6.605469 -11.679688 6.546875 -11.765625 6.367188 -11.765625 L 0.957031 -11.765625 C 0.824219 -11.765625 0.734375 -11.679688 0.734375 -11.53125 L 0.734375 -0.234375 C 0.734375 -0.0898438 0.824219 0 0.957031 0 L 6.367188 0 C 6.546875 0 6.605469 -0.0898438 6.605469 -0.234375 L 6.605469 -1.707031 C 6.605469 -1.867188 6.546875 -1.941406 6.367188 -1.941406 L 2.691406 -1.941406 L 2.691406 -4.914062 L 5.5 -4.914062 C 5.648438 -4.914062 5.738281 -5 5.738281 -5.164062 L 5.738281 -6.617188 C 5.738281 -6.78125 5.648438 -6.871094 5.5 -6.871094 L 2.691406 -6.871094 L 2.691406 -9.8125 L 6.367188 -9.8125 C 6.546875 -9.8125 6.605469 -9.914062 6.605469 -10.0625 Z M 6.605469 -11.53125" transform="translate(78.308 61.28)"/></g></g></g><g fill="#FFF"><g><g><path d="M 0.675781 -11.765625 C 0.53125 -11.765625 0.441406 -11.679688 0.441406 -11.53125 L 0.441406 -10.0625 C 0.441406 -9.914062 0.53125 -9.824219 0.675781 -9.824219 L 2.382812 -9.824219 L 2.382812 -0.234375 C 2.382812 -0.0742188 2.472656 0 2.617188 0 L 4.148438 0 C 4.308594 0 4.382812 -0.0742188 4.382812 -0.234375 L 4.382812 -9.824219 L 6.089844 -9.824219 C 6.25 -9.824219 6.324219 -9.914062 6.324219 -10.0625 L 6.324219 -11.53125 C 6.324219 -11.679688 6.25 -11.765625 6.089844 -11.765625 Z M 0.675781 -11.765625" transform="translate(85.648 61.28)"/></g></g></g><path fill="#004AAD" d="M 26.171875 46.011719 C 25.5 46.011719 24.832031 46.074219 24.171875 46.207031 C 23.515625 46.339844 22.875 46.53125 22.253906 46.789062 C 21.632812 47.046875 21.042969 47.363281 20.484375 47.734375 C 19.921875 48.109375 19.40625 48.535156 18.929688 49.007812 C 18.457031 49.484375 18.03125 50.003906 17.65625 50.5625 C 17.285156 51.121094 16.96875 51.710938 16.710938 52.332031 C 16.453125 52.953125 16.257812 53.59375 16.128906 54.253906 C 15.996094 54.910156 15.929688 55.578125 15.929688 56.25 C 15.929688 56.921875 15.996094 57.589844 16.128906 58.246094 C 16.257812 58.90625 16.453125 59.546875 16.710938 60.167969 C 16.96875 60.789062 17.285156 61.378906 17.65625 61.9375 C 18.03125 62.496094 18.457031 63.015625 18.929688 63.492188 C 19.40625 63.964844 19.921875 64.390625 20.484375 64.765625 C 21.042969 65.136719 21.632812 65.453125 22.253906 65.710938 C 22.875 65.96875 23.515625 66.160156 24.171875 66.292969 C 24.832031 66.425781 25.5 66.488281 26.171875 66.488281 C 26.84375 66.488281 27.507812 66.425781 28.167969 66.292969 C 28.828125 66.160156 29.46875 65.96875 30.089844 65.710938 C 30.710938 65.453125 31.300781 65.136719 31.859375 64.765625 C 32.417969 64.390625 32.9375 63.964844 33.410156 63.492188 C 33.886719 63.015625 34.3125 62.496094 34.683594 61.9375 C 35.058594 61.378906 35.375 60.789062 35.632812 60.167969 C 35.890625 59.546875 36.082031 58.90625 36.214844 58.246094 C 36.34375 57.589844 36.410156 56.921875 36.410156 56.25 C 36.410156 55.578125 36.34375 54.910156 36.214844 54.253906 C 36.082031 53.59375 35.890625 52.953125 35.632812 52.332031 C 35.375 51.710938 35.058594 51.121094 34.683594 50.5625 C 34.3125 50.003906 33.886719 49.484375 33.410156 49.007812 C 32.9375 48.535156 32.417969 48.109375 31.859375 47.734375 C 31.300781 47.363281 30.710938 47.046875 30.089844 46.789062 C 29.46875 46.53125 28.828125 46.339844 28.167969 46.207031 C 27.507812 46.074219 26.84375 46.011719 26.171875 46.011719 Z M 26.171875 46.011719"/><g clip-path="url(#a)"><path fill="#FFF" d="M 36.699219 53.566406 C 36.539062 53.113281 36.109375 52.722656 35.625 52.722656 L 31.128906 52.722656 L 34.964844 49.089844 C 35.296875 48.769531 35.398438 48.226562 35.222656 47.796875 C 35.046875 47.371094 34.632812 47.035156 34.167969 47.035156 L 26.398438 47.035156 C 26.039062 47.035156 25.707031 47.300781 25.492188 47.582031 L 18.996094 56.128906 C 18.734375 56.472656 18.691406 56.90625 18.882812 57.292969 C 19.074219 57.679688 19.46875 57.894531 19.902344 57.894531 L 24.289062 57.894531 C 24.304688 57.894531 24.320312 57.996094 24.335938 58.023438 L 20.511719 64.800781 C 20.242188 65.273438 20.351562 65.882812 20.769531 66.234375 C 20.980469 66.414062 21.242188 66.507812 21.503906 66.507812 C 21.757812 66.507812 22.007812 66.429688 22.21875 66.261719 L 36.339844 54.871094 C 36.714844 54.566406 36.859375 54.019531 36.699219 53.566406 Z M 36.699219 53.566406"/></g></svg>