<svg xmlns="http://www.w3.org/2000/svg" width="117.75" viewBox="0 0 117.75 30" height="30" version="1.0"><defs><clipPath id="a"><path d="M 1.777344 0 L 31 0 L 31 29.03125 L 1.777344 29.03125 Z M 1.777344 0"/></clipPath><clipPath id="b"><path d="M 5.789062 1.539062 L 30.519531 1.539062 L 30.519531 28.4375 L 5.789062 28.4375 Z M 5.789062 1.539062"/></clipPath></defs><g fill="#FFF"><g><g><path d="M 9.394531 -13.664062 C 9.394531 -15.621094 8.332031 -16.664062 6.394531 -16.664062 L 4.0625 -16.664062 C 2.105469 -16.664062 1.042969 -15.621094 1.042969 -13.664062 L 1.042969 -3 C 1.042969 -1.042969 2.105469 0 4.0625 0 L 6.394531 0 C 8.332031 0 9.394531 -1.042969 9.394531 -3 L 9.394531 -5.25 C 9.394531 -5.457031 9.269531 -5.582031 9.0625 -5.582031 L 6.976562 -5.582031 C 6.75 -5.582031 6.644531 -5.457031 6.644531 -5.25 L 6.644531 -3.582031 C 6.644531 -3.019531 6.351562 -2.75 5.8125 -2.75 L 4.726562 -2.75 C 4.1875 -2.75 3.894531 -3.019531 3.894531 -3.582031 L 3.894531 -13.082031 C 3.894531 -13.621094 4.167969 -13.914062 4.726562 -13.914062 L 5.8125 -13.914062 C 6.351562 -13.914062 6.644531 -13.621094 6.644531 -13.082031 L 6.644531 -11.414062 C 6.644531 -11.207031 6.75 -11.082031 6.976562 -11.082031 L 9.0625 -11.082031 C 9.269531 -11.082031 9.394531 -11.207031 9.394531 -11.414062 Z M 9.394531 -13.664062" transform="translate(36.495 21.717)"/></g></g></g><g fill="#FFF"><g><g><path d="M 6.539062 -9.707031 L 3.875 -9.707031 L 3.875 -16.332031 C 3.875 -16.539062 3.75 -16.664062 3.542969 -16.664062 L 1.394531 -16.664062 C 1.144531 -16.664062 1.042969 -16.539062 1.042969 -16.332031 L 1.042969 -0.332031 C 1.042969 -0.125 1.144531 0 1.394531 0 L 3.542969 0 C 3.75 0 3.875 -0.125 3.875 -0.332031 L 3.875 -6.957031 L 6.539062 -6.957031 L 6.539062 -0.332031 C 6.539062 -0.125 6.664062 0 6.875 0 L 9.019531 0 C 9.269531 0 9.375 -0.125 9.375 -0.332031 L 9.375 -16.332031 C 9.375 -16.539062 9.269531 -16.664062 9.019531 -16.664062 L 6.875 -16.664062 C 6.664062 -16.664062 6.539062 -16.539062 6.539062 -16.332031 Z M 6.539062 -9.707031" transform="translate(46.931 21.717)"/></g></g></g><g fill="#FFF"><g><g><path d="M 11.082031 0 C 11.332031 0 11.414062 -0.125 11.375 -0.355469 L 7.914062 -16.371094 C 7.875 -16.582031 7.75 -16.664062 7.5625 -16.664062 L 4.664062 -16.664062 C 4.476562 -16.664062 4.351562 -16.582031 4.3125 -16.371094 L 0.855469 -0.355469 C 0.792969 -0.125 0.894531 0 1.125 0 L 3.355469 0 C 3.542969 0 3.644531 -0.105469 3.6875 -0.292969 L 4.25 -3.332031 L 7.957031 -3.332031 L 8.539062 -0.292969 C 8.582031 -0.105469 8.6875 0 8.875 0 Z M 7.4375 -5.75 L 4.769531 -5.75 L 6.101562 -13.019531 Z M 7.4375 -5.75" transform="translate(57.346 21.717)"/></g></g></g><g fill="#FFF"><g><g><path d="M 0.957031 -16.664062 C 0.75 -16.664062 0.625 -16.539062 0.625 -16.332031 L 0.625 -14.246094 C 0.625 -14.039062 0.75 -13.914062 0.957031 -13.914062 L 3.375 -13.914062 L 3.375 -0.332031 C 3.375 -0.105469 3.5 0 3.707031 0 L 5.875 0 C 6.101562 0 6.207031 -0.105469 6.207031 -0.332031 L 6.207031 -13.914062 L 8.625 -13.914062 C 8.851562 -13.914062 8.957031 -14.039062 8.957031 -14.246094 L 8.957031 -16.332031 C 8.957031 -16.539062 8.851562 -16.664062 8.625 -16.664062 Z M 0.957031 -16.664062" transform="translate(69.553 21.717)"/></g></g></g><g fill="#FFF"><g><g><path d="M 7.4375 -16.664062 C 7.207031 -16.664062 7.101562 -16.539062 7.101562 -16.332031 L 7.101562 -7.539062 L 6.976562 -7.539062 L 3.8125 -16.394531 C 3.75 -16.582031 3.625 -16.664062 3.4375 -16.664062 L 1.375 -16.664062 C 1.167969 -16.664062 1.042969 -16.539062 1.042969 -16.332031 L 1.042969 -0.332031 C 1.042969 -0.125 1.167969 0 1.375 0 L 3.542969 0 C 3.769531 0 3.875 -0.125 3.875 -0.332031 L 3.875 -9.164062 L 3.980469 -9.164062 L 7.164062 -0.269531 C 7.226562 -0.0820312 7.351562 0 7.539062 0 L 9.601562 0 C 9.8125 0 9.9375 -0.125 9.9375 -0.332031 L 9.9375 -16.332031 C 9.9375 -16.539062 9.8125 -16.664062 9.601562 -16.664062 Z M 7.4375 -16.664062" transform="translate(79.135 21.717)"/></g></g></g><g fill="#FFF"><g><g><path d="M 9.351562 -16.332031 C 9.351562 -16.539062 9.269531 -16.664062 9.019531 -16.664062 L 1.355469 -16.664062 C 1.167969 -16.664062 1.042969 -16.539062 1.042969 -16.332031 L 1.042969 -0.332031 C 1.042969 -0.125 1.167969 0 1.355469 0 L 9.019531 0 C 9.269531 0 9.351562 -0.125 9.351562 -0.332031 L 9.351562 -2.417969 C 9.351562 -2.644531 9.269531 -2.75 9.019531 -2.75 L 3.8125 -2.75 L 3.8125 -6.957031 L 7.789062 -6.957031 C 8 -6.957031 8.125 -7.082031 8.125 -7.3125 L 8.125 -9.375 C 8.125 -9.601562 8 -9.726562 7.789062 -9.726562 L 3.8125 -9.726562 L 3.8125 -13.894531 L 9.019531 -13.894531 C 9.269531 -13.894531 9.351562 -14.039062 9.351562 -14.246094 Z M 9.351562 -16.332031" transform="translate(90.112 21.717)"/></g></g></g><g fill="#FFF"><g><g><path d="M 0.957031 -16.664062 C 0.75 -16.664062 0.625 -16.539062 0.625 -16.332031 L 0.625 -14.246094 C 0.625 -14.039062 0.75 -13.914062 0.957031 -13.914062 L 3.375 -13.914062 L 3.375 -0.332031 C 3.375 -0.105469 3.5 0 3.707031 0 L 5.875 0 C 6.101562 0 6.207031 -0.105469 6.207031 -0.332031 L 6.207031 -13.914062 L 8.625 -13.914062 C 8.851562 -13.914062 8.957031 -14.039062 8.957031 -14.246094 L 8.957031 -16.332031 C 8.957031 -16.539062 8.851562 -16.664062 8.625 -16.664062 Z M 0.957031 -16.664062" transform="translate(100.507 21.717)"/></g></g></g><g clip-path="url(#a)"><path fill="#004AAD" d="M 16.28125 0.0898438 C 15.328125 0.0898438 14.382812 0.183594 13.449219 0.371094 C 12.515625 0.554688 11.609375 0.832031 10.730469 1.195312 C 9.851562 1.558594 9.015625 2.007812 8.222656 2.535156 C 7.429688 3.066406 6.699219 3.664062 6.027344 4.339844 C 5.351562 5.011719 4.75 5.746094 4.222656 6.535156 C 3.691406 7.328125 3.246094 8.164062 2.882812 9.042969 C 2.519531 9.921875 2.242188 10.828125 2.058594 11.765625 C 1.871094 12.699219 1.777344 13.640625 1.777344 14.59375 C 1.777344 15.546875 1.871094 16.488281 2.058594 17.421875 C 2.242188 18.355469 2.519531 19.261719 2.882812 20.140625 C 3.246094 21.023438 3.691406 21.859375 4.222656 22.648438 C 4.75 23.441406 5.351562 24.171875 6.027344 24.847656 C 6.699219 25.519531 7.429688 26.121094 8.222656 26.648438 C 9.015625 27.179688 9.851562 27.625 10.730469 27.988281 C 11.609375 28.355469 12.515625 28.628906 13.449219 28.816406 C 14.382812 29 15.328125 29.09375 16.28125 29.09375 C 17.230469 29.09375 18.175781 29 19.109375 28.816406 C 20.042969 28.628906 20.949219 28.355469 21.828125 27.988281 C 22.707031 27.625 23.542969 27.179688 24.335938 26.648438 C 25.128906 26.121094 25.859375 25.519531 26.53125 24.847656 C 27.207031 24.171875 27.808594 23.441406 28.335938 22.648438 C 28.867188 21.859375 29.3125 21.023438 29.675781 20.140625 C 30.039062 19.261719 30.316406 18.355469 30.5 17.421875 C 30.6875 16.488281 30.78125 15.546875 30.78125 14.59375 C 30.78125 13.640625 30.6875 12.699219 30.5 11.765625 C 30.316406 10.828125 30.039062 9.921875 29.675781 9.042969 C 29.3125 8.164062 28.867188 7.328125 28.335938 6.535156 C 27.808594 5.746094 27.207031 5.011719 26.53125 4.339844 C 25.859375 3.664062 25.128906 3.066406 24.335938 2.535156 C 23.542969 2.007812 22.707031 1.558594 21.828125 1.195312 C 20.949219 0.832031 20.042969 0.554688 19.109375 0.371094 C 18.175781 0.183594 17.230469 0.0898438 16.28125 0.0898438 Z M 16.28125 0.0898438"/></g><g clip-path="url(#b)"><path fill="#FFF" d="M 30.429688 10.558594 C 30.210938 9.933594 29.617188 9.394531 28.957031 9.394531 L 22.78125 9.394531 L 28.046875 4.378906 C 28.5 3.933594 28.640625 3.183594 28.402344 2.59375 C 28.164062 2.003906 27.589844 1.542969 26.953125 1.542969 L 16.277344 1.542969 C 15.785156 1.542969 15.328125 1.910156 15.03125 2.296875 L 6.109375 14.09375 C 5.75 14.566406 5.6875 15.164062 5.953125 15.699219 C 6.214844 16.230469 6.757812 16.53125 7.351562 16.53125 L 13.378906 16.53125 C 13.398438 16.53125 13.421875 16.671875 13.445312 16.707031 L 8.191406 26.0625 C 7.824219 26.714844 7.96875 27.554688 8.542969 28.039062 C 8.832031 28.285156 9.191406 28.417969 9.554688 28.417969 C 9.902344 28.417969 10.25 28.308594 10.535156 28.078125 L 29.9375 12.355469 C 30.453125 11.9375 30.652344 11.183594 30.429688 10.558594 Z M 30.429688 10.558594"/></g></svg>