<svg xmlns="http://www.w3.org/2000/svg" width="375" viewBox="0 0 375 375" height="375" version="1.0"><defs><clipPath id="a"><path d="M 62.546875 156.773438 L 121.046875 156.773438 L 121.046875 220.492188 L 62.546875 220.492188 Z M 62.546875 156.773438"/></clipPath></defs><g fill="#FFF"><g><g><path d="M 22.113281 -32.164062 C 22.113281 -36.773438 19.613281 -39.222656 15.050781 -39.222656 L 9.5625 -39.222656 C 4.953125 -39.222656 2.453125 -36.773438 2.453125 -32.164062 L 2.453125 -7.058594 C 2.453125 -2.453125 4.953125 0 9.5625 0 L 15.050781 0 C 19.613281 0 22.113281 -2.453125 22.113281 -7.058594 L 22.113281 -12.355469 C 22.113281 -12.847656 21.820312 -13.140625 21.328125 -13.140625 L 16.425781 -13.140625 C 15.886719 -13.140625 15.640625 -12.847656 15.640625 -12.355469 L 15.640625 -8.433594 C 15.640625 -7.109375 14.953125 -6.472656 13.679688 -6.472656 L 11.128906 -6.472656 C 9.855469 -6.472656 9.167969 -7.109375 9.167969 -8.433594 L 9.167969 -30.792969 C 9.167969 -32.066406 9.804688 -32.753906 11.128906 -32.753906 L 13.679688 -32.753906 C 14.953125 -32.753906 15.640625 -32.066406 15.640625 -30.792969 L 15.640625 -26.867188 C 15.640625 -26.378906 15.886719 -26.085938 16.425781 -26.085938 L 21.328125 -26.085938 C 21.820312 -26.085938 22.113281 -26.378906 22.113281 -26.867188 Z M 22.113281 -32.164062" transform="translate(134.822 204.268)"/></g></g></g><g fill="#FFF"><g><g><path d="M 15.394531 -22.847656 L 9.121094 -22.847656 L 9.121094 -38.441406 C 9.121094 -38.929688 8.824219 -39.222656 8.335938 -39.222656 L 3.285156 -39.222656 C 2.695312 -39.222656 2.453125 -38.929688 2.453125 -38.441406 L 2.453125 -0.785156 C 2.453125 -0.292969 2.695312 0 3.285156 0 L 8.335938 0 C 8.824219 0 9.121094 -0.292969 9.121094 -0.785156 L 9.121094 -16.375 L 15.394531 -16.375 L 15.394531 -0.785156 C 15.394531 -0.292969 15.691406 0 16.179688 0 L 21.230469 0 C 21.820312 0 22.0625 -0.292969 22.0625 -0.785156 L 22.0625 -38.441406 C 22.0625 -38.929688 21.820312 -39.222656 21.230469 -39.222656 L 16.179688 -39.222656 C 15.691406 -39.222656 15.394531 -38.929688 15.394531 -38.441406 Z M 15.394531 -22.847656" transform="translate(159.387 204.268)"/></g></g></g><g fill="#FFF"><g><g><path d="M 26.085938 0 C 26.671875 0 26.867188 -0.292969 26.769531 -0.832031 L 18.632812 -38.539062 C 18.535156 -39.027344 18.238281 -39.222656 17.796875 -39.222656 L 10.984375 -39.222656 C 10.542969 -39.222656 10.246094 -39.027344 10.148438 -38.539062 L 2.011719 -0.832031 C 1.863281 -0.292969 2.109375 0 2.648438 0 L 7.894531 0 C 8.335938 0 8.582031 -0.246094 8.679688 -0.6875 L 10.003906 -7.84375 L 18.730469 -7.84375 L 20.101562 -0.6875 C 20.199219 -0.246094 20.445312 0 20.886719 0 Z M 17.503906 -13.53125 L 11.226562 -13.53125 L 14.367188 -30.644531 Z M 17.503906 -13.53125" transform="translate(183.902 204.268)"/></g></g></g><g fill="#FFF"><g><g><path d="M 2.253906 -39.222656 C 1.765625 -39.222656 1.472656 -38.929688 1.472656 -38.441406 L 1.472656 -33.535156 C 1.472656 -33.046875 1.765625 -32.753906 2.253906 -32.753906 L 7.941406 -32.753906 L 7.941406 -0.785156 C 7.941406 -0.246094 8.238281 0 8.726562 0 L 13.828125 0 C 14.367188 0 14.609375 -0.246094 14.609375 -0.785156 L 14.609375 -32.753906 L 20.296875 -32.753906 C 20.835938 -32.753906 21.082031 -33.046875 21.082031 -33.535156 L 21.082031 -38.441406 C 21.082031 -38.929688 20.835938 -39.222656 20.296875 -39.222656 Z M 2.253906 -39.222656" transform="translate(212.634 204.268)"/></g></g></g><g fill="#FFF"><g><g><path d="M 17.503906 -39.222656 C 16.964844 -39.222656 16.71875 -38.929688 16.71875 -38.441406 L 16.71875 -17.75 L 16.425781 -17.75 L 8.972656 -38.585938 C 8.824219 -39.027344 8.53125 -39.222656 8.089844 -39.222656 L 3.234375 -39.222656 C 2.746094 -39.222656 2.453125 -38.929688 2.453125 -38.441406 L 2.453125 -0.785156 C 2.453125 -0.292969 2.746094 0 3.234375 0 L 8.335938 0 C 8.875 0 9.121094 -0.292969 9.121094 -0.785156 L 9.121094 -21.574219 L 9.363281 -21.574219 L 16.867188 -0.636719 C 17.011719 -0.195312 17.308594 0 17.75 0 L 22.601562 0 C 23.09375 0 23.386719 -0.292969 23.386719 -0.785156 L 23.386719 -38.441406 C 23.386719 -38.929688 23.09375 -39.222656 22.601562 -39.222656 Z M 17.503906 -39.222656" transform="translate(235.188 204.268)"/></g></g></g><g fill="#FFF"><g><g><path d="M 22.015625 -38.441406 C 22.015625 -38.929688 21.820312 -39.222656 21.230469 -39.222656 L 3.1875 -39.222656 C 2.746094 -39.222656 2.453125 -38.929688 2.453125 -38.441406 L 2.453125 -0.785156 C 2.453125 -0.292969 2.746094 0 3.1875 0 L 21.230469 0 C 21.820312 0 22.015625 -0.292969 22.015625 -0.785156 L 22.015625 -5.6875 C 22.015625 -6.226562 21.820312 -6.472656 21.230469 -6.472656 L 8.972656 -6.472656 L 8.972656 -16.375 L 18.335938 -16.375 C 18.828125 -16.375 19.121094 -16.671875 19.121094 -17.210938 L 19.121094 -22.0625 C 19.121094 -22.601562 18.828125 -22.898438 18.335938 -22.898438 L 8.972656 -22.898438 L 8.972656 -32.703125 L 21.230469 -32.703125 C 21.820312 -32.703125 22.015625 -33.046875 22.015625 -33.535156 Z M 22.015625 -38.441406" transform="translate(261.027 204.268)"/></g></g></g><g fill="#FFF"><g><g><path d="M 2.253906 -39.222656 C 1.765625 -39.222656 1.472656 -38.929688 1.472656 -38.441406 L 1.472656 -33.535156 C 1.472656 -33.046875 1.765625 -32.753906 2.253906 -32.753906 L 7.941406 -32.753906 L 7.941406 -0.785156 C 7.941406 -0.246094 8.238281 0 8.726562 0 L 13.828125 0 C 14.367188 0 14.609375 -0.246094 14.609375 -0.785156 L 14.609375 -32.753906 L 20.296875 -32.753906 C 20.835938 -32.753906 21.082031 -33.046875 21.082031 -33.535156 L 21.082031 -38.441406 C 21.082031 -38.929688 20.835938 -39.222656 20.296875 -39.222656 Z M 2.253906 -39.222656" transform="translate(285.493 204.268)"/></g></g></g><path fill="#004AAD" d="M 87.238281 153.367188 C 86.121094 153.367188 85.003906 153.421875 83.890625 153.53125 C 82.78125 153.640625 81.675781 153.804688 80.578125 154.023438 C 79.484375 154.242188 78.398438 154.511719 77.328125 154.835938 C 76.261719 155.160156 75.207031 155.539062 74.175781 155.964844 C 73.144531 156.394531 72.132812 156.871094 71.148438 157.398438 C 70.160156 157.925781 69.203125 158.5 68.273438 159.121094 C 67.34375 159.742188 66.449219 160.40625 65.585938 161.113281 C 64.71875 161.824219 63.894531 162.574219 63.101562 163.363281 C 62.3125 164.15625 61.5625 164.980469 60.851562 165.847656 C 60.144531 166.710938 59.480469 167.605469 58.859375 168.535156 C 58.238281 169.464844 57.664062 170.425781 57.136719 171.410156 C 56.609375 172.394531 56.132812 173.40625 55.703125 174.4375 C 55.277344 175.472656 54.898438 176.523438 54.574219 177.589844 C 54.25 178.660156 53.980469 179.746094 53.761719 180.839844 C 53.542969 181.9375 53.378906 183.042969 53.269531 184.15625 C 53.160156 185.265625 53.105469 186.382812 53.105469 187.5 C 53.105469 188.617188 53.160156 189.734375 53.269531 190.84375 C 53.378906 191.957031 53.542969 193.0625 53.761719 194.160156 C 53.980469 195.253906 54.25 196.339844 54.574219 197.410156 C 54.898438 198.476562 55.277344 199.527344 55.703125 200.5625 C 56.132812 201.59375 56.609375 202.605469 57.136719 203.589844 C 57.664062 204.574219 58.238281 205.535156 58.859375 206.464844 C 59.480469 207.394531 60.144531 208.289062 60.851562 209.152344 C 61.5625 210.019531 62.3125 210.84375 63.101562 211.636719 C 63.894531 212.425781 64.71875 213.175781 65.585938 213.886719 C 66.449219 214.59375 67.34375 215.257812 68.273438 215.878906 C 69.203125 216.5 70.160156 217.074219 71.148438 217.601562 C 72.132812 218.128906 73.144531 218.605469 74.175781 219.035156 C 75.207031 219.460938 76.261719 219.839844 77.328125 220.164062 C 78.398438 220.488281 79.484375 220.757812 80.578125 220.976562 C 81.675781 221.195312 82.78125 221.359375 83.890625 221.46875 C 85.003906 221.578125 86.121094 221.632812 87.238281 221.632812 C 88.355469 221.632812 89.472656 221.578125 90.582031 221.46875 C 91.695312 221.359375 92.800781 221.195312 93.898438 220.976562 C 94.992188 220.757812 96.078125 220.488281 97.144531 220.164062 C 98.214844 219.839844 99.265625 219.460938 100.300781 219.035156 C 101.332031 218.605469 102.34375 218.128906 103.328125 217.601562 C 104.3125 217.074219 105.273438 216.5 106.203125 215.878906 C 107.128906 215.257812 108.027344 214.59375 108.890625 213.886719 C 109.753906 213.175781 110.582031 212.425781 111.375 211.636719 C 112.164062 210.84375 112.914062 210.019531 113.621094 209.152344 C 114.332031 208.289062 114.996094 207.394531 115.617188 206.464844 C 116.238281 205.535156 116.8125 204.574219 117.339844 203.589844 C 117.867188 202.605469 118.34375 201.59375 118.773438 200.5625 C 119.199219 199.527344 119.578125 198.476562 119.902344 197.410156 C 120.226562 196.339844 120.496094 195.253906 120.714844 194.160156 C 120.933594 193.0625 121.097656 191.957031 121.207031 190.84375 C 121.316406 189.734375 121.371094 188.617188 121.371094 187.5 C 121.371094 186.382812 121.316406 185.265625 121.207031 184.15625 C 121.097656 183.042969 120.933594 181.9375 120.714844 180.839844 C 120.496094 179.746094 120.226562 178.660156 119.902344 177.589844 C 119.578125 176.523438 119.199219 175.472656 118.773438 174.4375 C 118.34375 173.40625 117.867188 172.394531 117.339844 171.410156 C 116.8125 170.425781 116.238281 169.464844 115.617188 168.535156 C 114.996094 167.605469 114.332031 166.710938 113.621094 165.847656 C 112.914062 164.980469 112.164062 164.15625 111.375 163.363281 C 110.582031 162.574219 109.753906 161.824219 108.890625 161.113281 C 108.027344 160.40625 107.128906 159.742188 106.203125 159.121094 C 105.273438 158.5 104.3125 157.925781 103.328125 157.398438 C 102.34375 156.871094 101.332031 156.394531 100.300781 155.964844 C 99.265625 155.539062 98.214844 155.160156 97.144531 154.835938 C 96.078125 154.511719 94.992188 154.242188 93.898438 154.023438 C 92.800781 153.804688 91.695312 153.640625 90.582031 153.53125 C 89.472656 153.421875 88.355469 153.367188 87.238281 153.367188 Z M 87.238281 153.367188"/><g clip-path="url(#a)"><path fill="#FFF" d="M 120.835938 178.136719 C 120.3125 176.65625 118.914062 175.378906 117.347656 175.378906 L 102.738281 175.378906 L 115.195312 163.496094 C 116.273438 162.445312 116.605469 160.664062 116.039062 159.269531 C 115.472656 157.871094 114.117188 156.78125 112.613281 156.78125 L 87.351562 156.78125 C 86.195312 156.78125 85.109375 157.644531 84.410156 158.566406 L 63.300781 186.515625 C 62.449219 187.636719 62.308594 189.054688 62.933594 190.316406 C 63.554688 191.578125 64.839844 192.285156 66.246094 192.285156 L 80.5 192.285156 C 80.546875 192.285156 80.597656 192.621094 80.652344 192.703125 L 68.226562 214.867188 C 67.355469 216.414062 67.703125 218.410156 69.058594 219.558594 C 69.746094 220.140625 70.597656 220.457031 71.449219 220.457031 C 72.273438 220.457031 73.09375 220.195312 73.773438 219.644531 L 119.671875 182.394531 C 120.890625 181.40625 121.355469 179.617188 120.835938 178.136719 Z M 120.835938 178.136719"/></g></svg>