<svg xmlns:xlink="http://www.w3.org/1999/xlink" width="1266.1200469886633" xmlns="http://www.w3.org/2000/svg" id="screenshot" version="1.1" viewBox="-0.00002945408027699159 -0.0001327683537510893 1266.1200469886633 240.00014843559939" height="240.00014843559939" style="-webkit-print-color-adjust: exact;"><g id="shape-0d86b240-33f8-11ec-bc16-7b519797d558" width="1268" height="242" fill="none"><g id="shape-939dc8a0-33f8-11ec-bc16-7b519797d558"><g><path d="M14795 8655 c-472 -46 -855 -158 -1277 -372 -384 -195 -700 -454
-973 -798 -370 -468 -598 -1019 -691 -1675 -42 -299 -58 -819 -34 -1131 50
-637 207 -1176 477 -1634 415 -702 1027 -1168 1838 -1398 530 -151 1212 -178
1790 -72 782 144 1452 566 1915 1205 263 362 451 843 495 1261 l7 66 -953 5
c-644 4 -956 2 -961 -5 -3 -6 -9 -31 -13 -55 -17 -113 -95 -302 -174 -422 -56
-86 -187 -216 -277 -276 -199 -132 -398 -190 -694 -201 -277 -10 -504 36 -725
146 -461 230 -726 723 -786 1466 -15 190 -6 638 16 794 63 454 203 797 424
1046 212 238 488 376 831 416 143 16 386 7 513 -20 197 -42 402 -144 539 -269
123 -114 224 -276 281 -452 31 -94 41 -139 62 -272 l6 -38 956 0 955 0 -6 58
c-50 437 -133 735 -296 1067 -258 524 -661 930 -1195 1202 -365 186 -721 291
-1175 349 -175 22 -690 27 -875 9z M19190 5090 l0 -3490 945 0 945 0 0 1365 0
1365 1260 0 1260 0 0 -1365 0 -1365 940 0 940 0 0 3490 0 3490 -940 0 -940 0
0 -1365 0 -1365 -1260 0 -1260 0 0 1365 0 1365 -945 0 -945 0 0 -3490z M27365
5253 c-604 -1831 -1122 -3401 -1151 -3491 l-52 -162 1017 0 1017 0 179 592
c98 326 189 628 202 671 l24 77 1154 0 1154 0 24 -77 c13 -43 104 -345 202
-671 l179 -592 1017 0 1018 0 -14 43 c-19 57 -854 2589 -1639 4969 -355 1077
-646 1960 -646 1963 0 3 -582 5 -1293 5 l-1293 0 -1099 -3327z m2429 1390
c225 -747 677 -2250 682 -2268 l6 -25 -727 0 -727 0 6 23 c3 12 156 524 341
1137 185 613 338 1123 341 1133 4 12 16 17 39 17 23 0 35 -5 39 -17z M32960
7820 l0 -760 1050 0 1050 0 0 -2730 0 -2730 930 0 930 0 0 2730 0 2730 1050 0
1050 0 0 760 0 760 -3030 0 -3030 0 0 -760z" transform="translate(0, 0) scale(0.25, 0.25) translate(0.000000,960.000000) scale(0.100000,-0.100000)" fill="#ffffff" stroke="none"/></g></g></g></svg>